<?xml version="1.0" encoding="UTF-8"?>
<svg version="1.1" xmlns="http://www.w3.org/2000/svg" width="544" height="544">
<path d="M0 0 C0.85327881 -0.00701431 1.70655762 -0.01402863 2.58569336 -0.02125549 C5.32541251 -0.0386571 8.06491511 -0.04510841 10.8046875 -0.046875 C12.21279694 -0.04788712 12.21279694 -0.04788712 13.64935303 -0.04891968 C28.19354775 -0.03232486 42.34596444 0.54987229 56.6796875 3.203125 C57.66485352 3.38004883 58.65001953 3.55697266 59.66503906 3.73925781 C102.19970998 11.53526112 142.42257151 28.66637242 176.6796875 55.203125 C177.57816406 55.88890625 178.47664063 56.5746875 179.40234375 57.28125 C185.12897909 61.74639198 190.47650177 66.59273999 195.7890625 71.53515625 C198.31875625 73.86999521 200.88977058 76.13785253 203.4921875 78.390625 C206.91710308 81.42201347 209.94587019 84.61331906 212.890625 88.109375 C214.11009965 89.5365331 215.36761602 90.93183979 216.65625 92.296875 C257.7094091 135.88786576 283.55052545 200.73765028 283.8828125 260.5234375 C283.88982681 261.37671631 283.89684113 262.22999512 283.90406799 263.10913086 C283.9214696 265.84885001 283.92792091 268.58835261 283.9296875 271.328125 C283.93069962 272.73623444 283.93069962 272.73623444 283.93173218 274.17279053 C283.91513736 288.71698525 283.33294021 302.86940194 280.6796875 317.203125 C280.50276367 318.18829102 280.32583984 319.17345703 280.14355469 320.18847656 C272.34755138 362.72314748 255.21644008 402.94600901 228.6796875 437.203125 C227.99390625 438.10160156 227.308125 439.00007813 226.6015625 439.92578125 C222.13642052 445.65241659 217.29007251 450.99993927 212.34765625 456.3125 C210.01281729 458.84219375 207.74495997 461.41320808 205.4921875 464.015625 C202.46079903 467.44054058 199.26949344 470.46930769 195.7734375 473.4140625 C194.3462794 474.63353715 192.95097271 475.89105352 191.5859375 477.1796875 C147.99494674 518.2328466 83.14516222 544.07396295 23.359375 544.40625 C22.50609619 544.41326431 21.65281738 544.42027863 20.77368164 544.42750549 C18.03396249 544.4449071 15.29445989 544.45135841 12.5546875 544.453125 C11.14657806 544.45413712 11.14657806 544.45413712 9.71002197 544.45516968 C-4.83417275 544.43857486 -18.98658944 543.85637771 -33.3203125 541.203125 C-34.30547852 541.02620117 -35.29064453 540.84927734 -36.30566406 540.66699219 C-78.84033498 532.87098888 -119.06319651 515.73987758 -153.3203125 489.203125 C-154.66802734 488.17445313 -154.66802734 488.17445313 -156.04296875 487.125 C-161.76960409 482.65985802 -167.11712677 477.81351001 -172.4296875 472.87109375 C-174.95938125 470.53625479 -177.53039558 468.26839747 -180.1328125 466.015625 C-183.55772808 462.98423653 -186.58649519 459.79293094 -189.53125 456.296875 C-190.75072465 454.8697169 -192.00824102 453.47441021 -193.296875 452.109375 C-234.3500341 408.51838424 -260.19115045 343.66859972 -260.5234375 283.8828125 C-260.53395897 282.60289429 -260.53395897 282.60289429 -260.54469299 281.29711914 C-260.5620946 278.55739999 -260.56854591 275.81789739 -260.5703125 273.078125 C-260.57098724 272.13938538 -260.57166199 271.20064575 -260.57235718 270.23345947 C-260.55576236 255.68926475 -259.97356521 241.53684806 -257.3203125 227.203125 C-257.14338867 226.21795898 -256.96646484 225.23279297 -256.78417969 224.21777344 C-248.98817638 181.68310252 -231.85706508 141.46024099 -205.3203125 107.203125 C-204.63453125 106.30464844 -203.94875 105.40617187 -203.2421875 104.48046875 C-198.77704552 98.75383341 -193.93069751 93.40631073 -188.98828125 88.09375 C-186.65344229 85.56405625 -184.38558497 82.99304192 -182.1328125 80.390625 C-179.10142403 76.96570942 -175.91011844 73.93694231 -172.4140625 70.9921875 C-170.9869044 69.77271285 -169.59159771 68.51519648 -168.2265625 67.2265625 C-124.63557174 26.1734034 -59.78578722 0.33228705 0 0 Z " fill="#FDFEFE" transform="translate(260.3203125,-0.203125)"/>
<path d="M0 0 C2.475 0.495 2.475 0.495 5 1 C5.495 3.475 5.495 3.475 6 6 C6.66 6 7.32 6 8 6 C9.12752649 8.22791998 10.25208139 10.45725887 11.375 12.6875 C11.85066406 13.62625977 11.85066406 13.62625977 12.3359375 14.58398438 C14.05472081 18.00364701 15.64469217 21.42007074 17 25 C17.66 25 18.32 25 19 25 C19.29390625 25.63421875 19.5878125 26.2684375 19.890625 26.921875 C23.68753896 34.82120174 28.06992295 42.25767311 32.68457031 49.70410156 C35.54193972 54.36418107 38.0227105 58.98542111 40.11181641 64.04052734 C40.99967741 65.99928833 42.02736759 67.67182964 43.25 69.4375 C45 72 45 72 45 74 C45.66 74 46.32 74 47 74 C47.64757625 75.43671568 48.29299453 76.87440416 48.9375 78.3125 C49.47697266 79.51326172 49.47697266 79.51326172 50.02734375 80.73828125 C51 83 51 83 52 86 C52.66 86 53.32 86 54 86 C56.05643741 89.92592596 57.68938409 93.76570244 59 98 C59.66 98 60.32 98 61 98 C61.99 101.465 61.99 101.465 63 105 C63.66 105 64.32 105 65 105 C65.33 106.65 65.66 108.3 66 110 C66.66 110 67.32 110 68 110 C70.05643741 113.92592596 71.68938409 117.76570244 73 122 C73.66 122 74.32 122 75 122 C75.40089844 122.83660156 75.80179688 123.67320312 76.21484375 124.53515625 C80.34411563 132.99033201 84.89491324 141.05326778 89.81640625 149.06933594 C91.8524221 152.39046081 93.86437894 155.72596258 95.875 159.0625 C96.24415527 159.66956787 96.61331055 160.27663574 96.99365234 160.90209961 C99.17973384 164.52427469 101.11541657 168.21467957 103 172 C103.66 172.94875 104.32 173.8975 105 174.875 C106.96311483 177.94236692 108.14473619 180.75506717 109.33984375 184.1640625 C110.07191142 186.19999033 110.9698695 188.09822061 112 190 C112.66 190 113.32 190 114 190 C114.33 191.65 114.66 193.3 115 195 C115.66 195 116.32 195 117 195 C117.99 198.465 117.99 198.465 119 202 C119.66 202 120.32 202 121 202 C121.99 205.465 121.99 205.465 123 209 C123.66 209 124.32 209 125 209 C125.33 210.65 125.66 212.3 126 214 C126.66 214 127.32 214 128 214 C128.99 217.465 128.99 217.465 130 221 C130.66 221 131.32 221 132 221 C132.33 222.65 132.66 224.3 133 226 C133.66 226 134.32 226 135 226 C135.99 229.465 135.99 229.465 137 233 C137.66 233 138.32 233 139 233 C139.29390625 233.63421875 139.5878125 234.2684375 139.890625 234.921875 C143.68753896 242.82120174 148.06992295 250.25767311 152.68457031 257.70410156 C155.55045781 262.37807322 158.0089153 266.98487336 160.03857422 272.08325195 C161.08336903 274.1662088 162.33931755 275.38980549 164 277 C164.35169068 278.32860925 164.68770276 279.66158328 165 281 C165.66 281.33 166.32 281.66 167 282 C169.16145284 285.872603 170.69045524 289.76916309 172 294 C172.66 294 173.32 294 174 294 C174.33 295.65 174.66 297.3 175 299 C175.66 299 176.32 299 177 299 C177.99 302.465 177.99 302.465 179 306 C179.66 306 180.32 306 181 306 C181.99 309.465 181.99 309.465 183 313 C183.66 313 184.32 313 185 313 C185.33 314.65 185.66 316.3 186 318 C186.66 318 187.32 318 188 318 C188.99 321.465 188.99 321.465 190 325 C190.66 325 191.32 325 192 325 C192.33 326.65 192.66 328.3 193 330 C193.66 330 194.32 330 195 330 C195.36609375 330.77859375 195.7321875 331.5571875 196.109375 332.359375 C200.99162661 342.44936166 206.66051252 351.97741025 212.49975586 361.53881836 C214.09323438 364.15295294 215.67825371 366.77196222 217.2578125 369.39453125 C217.74008301 370.19479736 218.22235352 370.99506348 218.71923828 371.81958008 C220.84832681 375.44422545 222.67093194 379.01279583 224 383 C224.66 383 225.32 383 226 383 C229 388.625 229 388.625 229 392 C214.17079124 392.02333939 199.34158491 392.0409843 184.51236153 392.05181217 C177.62721264 392.05697291 170.74207516 392.0640114 163.85693359 392.07543945 C157.21745707 392.08645452 150.57798931 392.09227774 143.93850327 392.09487724 C141.40026538 392.09673073 138.86202818 392.10034988 136.32379532 392.10573006 C132.7798139 392.11294606 129.23588206 392.1139907 125.69189453 392.11352539 C124.63310089 392.11712067 123.57430725 392.12071594 122.48342896 392.12442017 C121.52146606 392.1230455 120.55950317 392.12167084 119.56838989 392.12025452 C118.72955828 392.12117631 117.89072666 392.1220981 117.02647591 392.12304783 C115 392 115 392 113 391 C112.1484375 389.2578125 112.1484375 389.2578125 111.375 387.125 C111.11460937 386.42632812 110.85421875 385.72765625 110.5859375 385.0078125 C110 383 110 383 110 380 C109.34 380 108.68 380 108 380 C107.67 378.35 107.34 376.7 107 375 C106.34 375 105.68 375 105 375 C104.67 373.35 104.34 371.7 104 370 C103.34 370 102.68 370 102 370 C100.5393715 367.35261084 100 366.10551666 100 363 C99.34 363 98.68 363 98 363 C96.5393715 360.35261084 96 359.10551666 96 356 C95.34 356 94.68 356 94 356 C93.608125 355.175 93.21625 354.35 92.8125 353.5 C91.05855623 350.11307411 89.10514229 346.99795617 86.98828125 343.83203125 C86 342 86 342 86 339 C85.34 339 84.68 339 84 339 C83.01 335.535 83.01 335.535 82 332 C81.34 332 80.68 332 80 332 C79.67 330.35 79.34 328.7 79 327 C78.34 327 77.68 327 77 327 C76.61328125 326.18015625 76.2265625 325.3603125 75.828125 324.515625 C75.30734375 323.43796875 74.7865625 322.3603125 74.25 321.25 C73.73953125 320.18265625 73.2290625 319.1153125 72.703125 318.015625 C71.06028801 315.10674849 69.3674671 313.3096064 67 311 C65.91015625 308.95703125 65.91015625 308.95703125 65.0625 306.8125 C63.33308986 302.64400146 61.25920593 298.82119551 58.953125 294.9453125 C58 293 58 293 58 290 C57.34 290 56.68 290 56 290 C54.5393715 287.35261084 54 286.10551666 54 283 C53.34 283 52.68 283 52 283 C51.15885829 281.56705502 50.32734313 280.12845595 49.5 278.6875 C49.0359375 277.88699219 48.571875 277.08648437 48.09375 276.26171875 C47 274 47 274 47 271 C46.34 271 45.68 271 45 271 C43.5393715 268.35261084 43 267.10551666 43 264 C42.34 264 41.68 264 41 264 C40.67 262.35 40.34 260.7 40 259 C39.34 259 38.68 259 38 259 C37.54625 258.071875 37.0925 257.14375 36.625 256.1875 C35.0578367 252.96078611 35.0578367 252.96078611 33 250 C33 249.01 33 248.02 33 247 C32.34 247 31.68 247 31 247 C30.01 243.535 30.01 243.535 29 240 C28.34 240 27.68 240 27 240 C26.566875 239.071875 26.13375 238.14375 25.6875 237.1875 C24.26972933 234.11261977 24.26972933 234.11261977 22.50952148 232.55517578 C20.77852654 230.77182825 20.08508639 229.22834585 19.16015625 226.9296875 C16.95763447 221.7609083 14.26044792 216.97653997 11.4375 212.125 C10.92026367 211.22604004 10.40302734 210.32708008 9.87011719 209.40087891 C7.19480495 204.75766092 4.49195158 200.13136114 1.76953125 195.515625 C1.26172119 194.65050293 0.75391113 193.78538086 0.23071289 192.89404297 C-0.73937252 191.24369816 -1.71524604 189.59673887 -2.69750977 187.95361328 C-3.13248779 187.21353027 -3.56746582 186.47344727 -4.015625 185.7109375 C-4.40008789 185.06431152 -4.78455078 184.41768555 -5.18066406 183.75146484 C-6 182 -6 182 -6 179 C-6.66 179 -7.32 179 -8 179 C-8.495 176.525 -8.495 176.525 -9 174 C-9.66 174 -10.32 174 -11 174 C-12.4606285 171.35261084 -13 170.10551666 -13 167 C-13.66 167 -14.32 167 -15 167 C-15.45375 166.071875 -15.9075 165.14375 -16.375 164.1875 C-17.9421633 160.96078611 -17.9421633 160.96078611 -20 158 C-20 157.01 -20 156.02 -20 155 C-20.66 155 -21.32 155 -22 155 C-22.66 152.69 -23.32 150.38 -24 148 C-24.66 148 -25.32 148 -26 148 C-26.33 146.35 -26.66 144.7 -27 143 C-27.66 143 -28.32 143 -29 143 C-29.45375 142.071875 -29.9075 141.14375 -30.375 140.1875 C-31.9421633 136.96078611 -31.9421633 136.96078611 -34 134 C-34 133.01 -34 132.02 -34 131 C-34.66 131 -35.32 131 -36 131 C-36.83819158 129.37750059 -37.6704116 127.75191503 -38.5 126.125 C-38.9640625 125.22007812 -39.428125 124.31515625 -39.90625 123.3828125 C-41 121 -41 121 -41 119 C-41.66 119 -42.32 119 -43 119 C-43.37511719 118.2265625 -43.75023437 117.453125 -44.13671875 116.65625 C-46.86067034 111.11228808 -49.56192672 105.80984329 -53.21484375 100.81640625 C-54.34323503 98.20594881 -53.81740647 96.6863509 -53 94 C-51.9140625 91.75390625 -51.9140625 91.75390625 -50.625 89.5625 C-49.24004691 87.18768779 -47.91600668 84.82974326 -46.69921875 82.36328125 C-44.34277919 77.69915605 -41.76432612 73.17026164 -39.1875 68.625 C-38.61926514 67.62130371 -38.05103027 66.61760742 -37.46557617 65.58349609 C-30.08647574 52.58457768 -22.55378685 39.67307151 -14.9296875 26.81640625 C-14.46328857 26.02862793 -13.99688965 25.24084961 -13.51635742 24.42919922 C-12.65727628 22.97998315 -11.7956328 21.53228159 -10.9309082 20.08642578 C-9.34263888 17.40875567 -7.98802227 14.96406681 -7 12 C-6.34 12 -5.68 12 -5 12 C-4.731875 11.13375 -4.46375 10.2675 -4.1875 9.375 C-3.02888013 6.08208036 -1.61790161 3.08872125 0 0 Z " fill="#0E2D4A" transform="translate(271,30)"/>
<path d="M0 0 C-0.92164422 7.72012568 -1.85543483 14.85326097 -5 22 C-5.66 22 -6.32 22 -7 22 C-9.66687931 34.62123106 -10.32595883 47.13551852 -10.26074219 59.99072266 C-10.2500087 62.49796715 -10.26071793 65.00449553 -10.2734375 67.51171875 C-10.28880172 83.27492845 -8.8196251 97.22853119 -3 112 C-2.4663072 113.57904522 -1.94368242 115.16192218 -1.4375 116.75 C0.80713256 123.53433886 3.32938362 129.92681488 6.93188477 136.11279297 C9.12998738 139.99652627 11.0356856 144.03370268 13 148.0390625 C16.09147875 154.29447653 19.38079158 160.30374429 23.4375 166 C24.34435547 167.28197266 24.34435547 167.28197266 25.26953125 168.58984375 C26.30032278 170.02550599 27.33719742 171.45687875 28.38671875 172.87890625 C31.21069569 176.71844588 33.55858187 180.67275703 35.7890625 184.88671875 C36.97089232 187.05555286 36.97089232 187.05555286 38.5859375 189.08203125 C40 191 40 191 41 194 C41.495 194.495 41.99 194.99 42.5 195.5 C44 197 44 197 45 200 C45.7425 200.721875 46.485 201.44375 47.25 202.1875 C50.44155492 205.45159026 55 210.17178777 55 215 C55.66 215 56.32 215 57 215 C57.66 216.98 58.32 218.96 59 221 C59.66 221 60.32 221 61 221 C62.2890625 222.6796875 62.2890625 222.6796875 63.625 224.875 C64.07101563 225.59429687 64.51703125 226.31359375 64.9765625 227.0546875 C66 229 66 229 66 231 C66.66 231 67.32 231 68 231 C71.61235386 234.95592012 74.02428026 239.06070066 76 244 C78.3967859 247.4965769 81.04641433 250.80636621 83.69140625 254.1171875 C88.72130728 260.54091653 88.72130728 260.54091653 89 265 C89.66 265 90.32 265 91 265 C93.43160605 268.36683915 94 269.73350364 94 274 C94.66 274 95.32 274 96 274 C97.47265625 276.046875 97.47265625 276.046875 99.0625 278.75 C99.58972656 279.63171875 100.11695313 280.5134375 100.66015625 281.421875 C102 284 102 284 102.49609375 286.140625 C102.85471432 288.08955339 102.85471432 288.08955339 104.39672852 289.35791016 C106.17601144 291.18027302 107.06885353 292.83566187 108.15625 295.1328125 C108.53910156 295.93976563 108.92195312 296.74671875 109.31640625 297.578125 C109.70699219 298.41859375 110.09757813 299.2590625 110.5 300.125 C110.89058594 300.94226563 111.28117188 301.75953125 111.68359375 302.6015625 C118 316.04253472 118 316.04253472 118 321 C118.66 321 119.32 321 120 321 C121.19287411 324.87684087 122 327.91621923 122 332 C122.66 332 123.32 332 124 332 C126.25456504 337.65573745 127.87039593 343.17315828 129.125 349.125 C129.29386719 349.89714844 129.46273437 350.66929687 129.63671875 351.46484375 C131.76486173 361.30122113 132.59028369 370.965102 133 381 C133.03013184 381.72832031 133.06026367 382.45664062 133.09130859 383.20703125 C133.6587995 399.25581874 132.05520437 415.69097684 127 431 C126.34 431 125.68 431 125 431 C124.84144531 431.53367187 124.68289063 432.06734375 124.51953125 432.6171875 C121.72943891 441.52698515 117.67700814 449.34844746 112.33203125 456.9921875 C110.96004151 458.9653174 110.96004151 458.9653174 109.96875 461.109375 C108.52119642 463.93443925 106.26193396 465.79066916 104 468 C103.278125 468.928125 102.55625 469.85625 101.8125 470.8125 C98.83441849 474.48293804 95.13544826 477.20577314 91.40234375 480.0703125 C88.95162796 481.95874434 88.95162796 481.95874434 86.81640625 484.2421875 C85 486 85 486 83 486 C83.12117187 485.10394043 83.24234375 484.20788086 83.3671875 483.28466797 C83.82176931 479.8897286 84.26798817 476.49388876 84.70898438 473.09716797 C84.89976808 471.64036155 85.09366849 470.18395916 85.29101562 468.72802734 C88.25696771 446.80116725 88.3925413 424.45805433 79 404 C78.03164551 402.96932567 77.03632649 401.96230317 76 401 C75.04296875 398.8359375 75.04296875 398.8359375 74.1875 396.375 C70.30058213 386.31814187 63.14200796 378.02689306 56.70703125 369.4765625 C56.2581958 368.87924316 55.80936035 368.28192383 55.34692383 367.66650391 C53.99195113 365.9900414 52.53518946 364.51077602 51 363 C49.7339556 361.45047174 48.48548226 359.8865044 47.25 358.3125 C43.62644253 353.7517018 39.88292871 349.34070557 36 345 C34.88044922 343.74123047 34.88044922 343.74123047 33.73828125 342.45703125 C29.92698055 338.19215427 26.10281909 333.98885189 22 330 C17.22350337 325.34597765 12.70468056 320.55702084 9 315 C9 314.01 9 313.02 9 312 C8.24847656 311.76023437 7.49695313 311.52046875 6.72265625 311.2734375 C3.58957545 309.80803672 2.43417537 308.4138598 0.4375 305.625 C-1.85307708 302.46157022 -4.22692944 299.74635504 -7 297 C-9.74704306 293.73024024 -12.37061016 290.36481305 -15 287 C-15.61101562 286.22140625 -16.22203125 285.4428125 -16.8515625 284.640625 C-17.39554688 283.93421875 -17.93953125 283.2278125 -18.5 282.5 C-18.9846875 281.8709375 -19.469375 281.241875 -19.96875 280.59375 C-21 279 -21 279 -21 277 C-21.99 276.67 -22.98 276.34 -24 276 C-25.359375 274.28515625 -25.359375 274.28515625 -26.75 272.0625 C-28.91216096 268.6747577 -31.14483784 265.38158484 -33.5 262.125 C-43 248.60495546 -43 248.60495546 -43 243 C-43.66 243 -44.32 243 -45 243 C-48.8150123 234.72851316 -52.43317426 226.38106595 -56 218 C-56.81017578 216.22689453 -56.81017578 216.22689453 -57.63671875 214.41796875 C-58.88584364 211.28620864 -59.45916585 208.89617855 -59.6875 205.5625 C-59.75324219 204.69753906 -59.81898438 203.83257812 -59.88671875 202.94140625 C-59.92410156 202.30074219 -59.96148437 201.66007813 -60 201 C-60.66 201 -61.32 201 -62 201 C-63.81495223 190.70986903 -64.21835746 180.56374131 -64.25 170.125 C-64.25902344 168.88983643 -64.26804687 167.65467285 -64.27734375 166.38208008 C-64.22957999 151.61014168 -60.47556021 137.68890053 -55 124 C-54.34 124 -53.68 124 -53 124 C-52.22416894 119.84965398 -51.85798029 115.88744438 -51.7890625 111.66796875 C-51.76255615 110.46422607 -51.7360498 109.2604834 -51.70874023 108.02026367 C-51.66728882 106.12304565 -51.66728882 106.12304565 -51.625 104.1875 C-51.32939904 93.19539638 -50.46575795 82.71596692 -48 72 C-47.34 72 -46.68 72 -46 72 C-45.90912109 70.84371094 -45.90912109 70.84371094 -45.81640625 69.6640625 C-45.73261719 68.66117187 -45.64882812 67.65828125 -45.5625 66.625 C-45.48128906 65.62726563 -45.40007812 64.62953125 -45.31640625 63.6015625 C-45 61 -45 61 -44 59 C-43.34 59 -42.68 59 -42 59 C-41.67 56.69 -41.34 54.38 -41 52 C-40.34 52 -39.68 52 -39 52 C-39 50.68 -39 49.36 -39 48 C-38.34 48 -37.68 48 -37 48 C-36.81824219 47.26394531 -36.63648438 46.52789062 -36.44921875 45.76953125 C-33.81728479 35.55222865 -33.81728479 35.55222865 -31 32 C-30.34 32 -29.68 32 -29 32 C-28.77054688 31.13632813 -28.54109375 30.27265625 -28.3046875 29.3828125 C-26.83632918 25.57563194 -24.78586592 22.89179571 -22.125 19.875 C-21.64683838 19.32166992 -21.16867676 18.76833984 -20.67602539 18.19824219 C-4.73578971 0 -4.73578971 0 0 0 Z " fill="#63CDFE" transform="translate(188,43)"/>
<path d="M0 0 C0.33 0 0.66 0 1 0 C1.01417969 0.67160156 1.02835938 1.34320313 1.04296875 2.03515625 C1.41212526 9.76748857 2.69558852 17.12711623 4.3125 24.6875 C4.51319092 25.64857666 4.71388184 26.60965332 4.9206543 27.59985352 C6.17335141 33.26441298 7.83230088 38.48837944 10.14013672 43.81347656 C10.96528465 45.91172325 11.4416578 47.84435153 11.8125 50.0625 C12.90953221 55.74246118 15.34021159 60.94643634 17.61254883 66.23657227 C20 71.81735734 20 71.81735734 20 74 C20.66 74 21.32 74 22 74 C22.24234375 74.64066406 22.4846875 75.28132813 22.734375 75.94140625 C24.79830174 81.26792488 27.07768664 86.09805501 30 91 C31.55837676 94.0013182 32.93096377 96.7928913 34 100 C34.66 100 35.32 100 36 100 C36.33 101.65 36.66 103.3 37 105 C37.66 105 38.32 105 39 105 C39.33 105.99 39.66 106.98 40 108 C40.99 108.495 40.99 108.495 42 109 C42.70507977 110.67876135 43.40710728 112.35890342 44.08984375 114.046875 C45.3106973 116.6667324 46.95595589 118.81585757 48.68359375 121.12109375 C50.10951865 123.15631594 51.2681764 125.24548824 52.4375 127.4375 C54.51169247 131.27932191 56.91562259 134.6420197 59.58203125 138.08984375 C62.76143862 142.37284707 65.17567594 146.98310884 67 152 C67.66 152 68.32 152 69 152 C69.33 153.32 69.66 154.64 70 156 C70.66 156 71.32 156 72 156 C72.33 157.32 72.66 158.64 73 160 C73.66 160 74.32 160 75 160 C76.5064916 161.94940013 77.88799091 163.89039328 79.25 165.9375 C79.64968994 166.52563477 80.04937988 167.11376953 80.46118164 167.71972656 C83.29905511 171.90665947 86.08048444 176.13135462 88.80859375 180.390625 C89.92324367 182.15028367 89.92324367 182.15028367 92 183 C92.75567787 184.28582398 93.45519902 185.60492392 94.125 186.9375 C96.07289547 190.56975215 98.23433172 193.64983916 100.875 196.8125 C112 210.2851711 112 210.2851711 112 216 C112.66 216 113.32 216 114 216 C118 222.75 118 222.75 118 225 C118.66 225 119.32 225 120 225 C120.64757625 226.43671568 121.29299453 227.87440416 121.9375 229.3125 C122.47697266 230.51326172 122.47697266 230.51326172 123.02734375 231.73828125 C124 234 124 234 125 237 C125.66 237 126.32 237 127 237 C138.39740752 260.84603225 138.39740752 260.84603225 141 272 C141.31453125 272.9178125 141.6290625 273.835625 141.953125 274.78125 C148.07348558 293.59907507 147.92327154 315.73393439 144 335 C143.34 335 142.68 335 142 335 C141.97421875 335.88042969 141.9484375 336.76085937 141.921875 337.66796875 C141.86515625 338.82941406 141.8084375 339.99085938 141.75 341.1875 C141.70359375 342.33605469 141.6571875 343.48460937 141.609375 344.66796875 C140.91174 348.48260114 139.62748409 350.20961189 137 353 C137.0721875 352.05382812 137.144375 351.10765625 137.21875 350.1328125 C138.58922873 331.11650735 138.50496137 314.23731675 132.5625 295.9375 C132.26206787 295.00768311 131.96163574 294.07786621 131.65209961 293.11987305 C131.3556958 292.24371338 131.05929199 291.36755371 130.75390625 290.46484375 C130.48908447 289.677146 130.2242627 288.88944824 129.95141602 288.07788086 C128.93111826 285.84956313 127.77380151 284.65883289 126 283 C125.04296875 280.8359375 125.04296875 280.8359375 124.1875 278.375 C120.30058213 268.31814187 113.14200796 260.02689306 106.70703125 251.4765625 C106.03377808 250.5805835 106.03377808 250.5805835 105.34692383 249.66650391 C103.99195113 247.9900414 102.53518946 246.51077602 101 245 C99.7339556 243.45047174 98.48548226 241.8865044 97.25 240.3125 C93.62644253 235.7517018 89.88292871 231.34070557 86 227 C84.88044922 225.74123047 84.88044922 225.74123047 83.73828125 224.45703125 C79.92698055 220.19215427 76.10281909 215.98885189 72 212 C67.22350337 207.34597765 62.70468056 202.55702084 59 197 C59 196.01 59 195.02 59 194 C58.24847656 193.76023437 57.49695313 193.52046875 56.72265625 193.2734375 C53.58957545 191.80803672 52.43417537 190.4138598 50.4375 187.625 C48.14692292 184.46157022 45.77307056 181.74635504 43 179 C40.25295694 175.73024024 37.62938984 172.36481305 35 169 C34.38898438 168.22140625 33.77796875 167.4428125 33.1484375 166.640625 C32.60445312 165.93421875 32.06046875 165.2278125 31.5 164.5 C30.77296875 163.55640625 30.77296875 163.55640625 30.03125 162.59375 C29 161 29 161 29 159 C28.01 158.67 27.02 158.34 26 158 C24.640625 156.28515625 24.640625 156.28515625 23.25 154.0625 C21.08783904 150.6747577 18.85516216 147.38158484 16.5 144.125 C7 130.60495546 7 130.60495546 7 125 C6.34 125 5.68 125 5 125 C1.1849877 116.72851316 -2.43317426 108.38106595 -6 100 C-6.81017578 98.22689453 -6.81017578 98.22689453 -7.63671875 96.41796875 C-8.88584364 93.28620864 -9.45916585 90.89617855 -9.6875 87.5625 C-9.75324219 86.69753906 -9.81898438 85.83257812 -9.88671875 84.94140625 C-9.92410156 84.30074219 -9.96148437 83.66007812 -10 83 C-10.66 83 -11.32 83 -12 83 C-13.81495223 72.70986903 -14.21835746 62.56374131 -14.25 52.125 C-14.25902344 50.88983643 -14.26804687 49.65467285 -14.27734375 48.38208008 C-14.22957999 33.61014168 -10.47556021 19.68890053 -5 6 C-4.34 6 -3.68 6 -3 6 C-2.87625 5.38125 -2.7525 4.7625 -2.625 4.125 C-2 2 -2 2 0 0 Z " fill="#0E66C2" transform="translate(138,161)"/>
<path d="M0 0 C0.99 0 1.98 0 3 0 C3.495 1.485 3.495 1.485 4 3 C4.99 3.495 4.99 3.495 6 4 C8.16145284 7.872603 9.69045524 11.76916309 11 16 C11.66 16 12.32 16 13 16 C15.05643741 19.92592596 16.68938409 23.76570244 18 28 C18.66 28 19.32 28 20 28 C20.99 31.465 20.99 31.465 22 35 C22.66 35 23.32 35 24 35 C24.495 37.475 24.495 37.475 25 40 C25.66 40 26.32 40 27 40 C29.05643741 43.92592596 30.68938409 47.76570244 32 52 C32.66 52 33.32 52 34 52 C34.40742432 52.84892822 34.81484863 53.69785645 35.23461914 54.57250977 C39.21287089 62.71286561 43.55516858 70.47728427 48.33862305 78.16842651 C50.21944411 81.19634576 52.07731738 84.23823977 53.93359375 87.28125 C54.2923056 87.8692186 54.65101746 88.45718719 55.02059937 89.06297302 C65.44119975 106.20599877 65.44119975 106.20599877 67 114 C23.77 114 -19.46 114 -64 114 C-63.12336336 109.61681678 -62.35727915 107.48929407 -60.18359375 103.7734375 C-59.29546997 102.24432739 -59.29546997 102.24432739 -58.3894043 100.68432617 C-57.74527588 99.59224854 -57.10114746 98.5001709 -56.4375 97.375 C-55.7772583 96.24231689 -55.1170166 95.10963379 -54.43676758 93.94262695 C-50.82999715 87.7608525 -47.17645056 81.60690212 -43.515625 75.45703125 C-43.15159073 74.84492798 -42.78755646 74.23282471 -42.41249084 73.60217285 C-40.64937176 70.63853932 -38.88191846 67.67768509 -37.10522461 64.72216797 C-36.46593018 63.65240723 -35.82663574 62.58264648 -35.16796875 61.48046875 C-34.60360107 60.54098389 -34.0392334 59.60149902 -33.45776367 58.63354492 C-32.07683897 56.1388146 -30.99246631 53.66984011 -30 51 C-29.34 51 -28.68 51 -28 51 C-27.67 49.35 -27.34 47.7 -27 46 C-25.02 45.505 -25.02 45.505 -23 45 C-22.67 43.02 -22.34 41.04 -22 39 C-21.01 38.67 -20.02 38.34 -19 38 C-18.33798081 36.12549153 -18.33798081 36.12549153 -18.0625 33.875 C-17.18799726 29.20351098 -15.54746322 25.99102571 -13 22 C-12.34 22 -11.68 22 -11 22 C-10.67 20.35 -10.34 18.7 -10 17 C-9.34 17 -8.68 17 -8 17 C-7.731875 15.948125 -7.46375 14.89625 -7.1875 13.8125 C-6.11496817 10.36910834 -4.96182176 7.98196907 -3 5 C-2.505 4.071875 -2.01 3.14375 -1.5 2.1875 C-1.005 1.465625 -0.51 0.74375 0 0 Z " fill="#0F2F4B" transform="translate(111,308)"/>
<path d="M0 0 C0.99 0.495 0.99 0.495 2 1 C2 1.66 2 2.32 2 3 C2.66 3 3.32 3 4 3 C7 8.625 7 8.625 7 12 C-7.82920876 12.02333939 -22.65841509 12.0409843 -37.48763847 12.05181217 C-44.37278736 12.05697291 -51.25792484 12.0640114 -58.14306641 12.07543945 C-64.78254293 12.08645452 -71.42201069 12.09227774 -78.06149673 12.09487724 C-80.59973462 12.09673073 -83.13797182 12.10034988 -85.67620468 12.10573006 C-89.2201861 12.11294606 -92.76411794 12.1139907 -96.30810547 12.11352539 C-97.36689911 12.11712067 -98.42569275 12.12071594 -99.51657104 12.12442017 C-100.47853394 12.1230455 -101.44049683 12.12167084 -102.43161011 12.12025452 C-103.27044172 12.12117631 -104.10927334 12.1220981 -104.97352409 12.12304783 C-107 12 -107 12 -109 11 C-108.67 9.68 -108.34 8.36 -108 7 C-108 7.66 -108 8.32 -108 9 C-107.34 9 -106.68 9 -106 9 C-106 9.66 -106 10.32 -106 11 C-104.55231232 10.98120789 -104.55231232 10.98120789 -103.07537842 10.96203613 C-93.84238365 10.84242366 -84.60936573 10.72475647 -75.3763237 10.60884857 C-70.63303143 10.54924458 -65.88974884 10.48902628 -61.14648438 10.42724609 C-39.42984385 10.14485126 -17.71881768 9.90891227 4 10 C3.71125 9.44570313 3.4225 8.89140625 3.125 8.3203125 C2.75375 7.59585937 2.3825 6.87140625 2 6.125 C1.62875 5.40570313 1.2575 4.68640625 0.875 3.9453125 C0 2 0 2 0 0 Z " fill="#465E75" transform="translate(493,410)"/>
<path d="M0 0 C0.33 0.66 0.66 1.32 1 2 C0.67 2.99 0.34 3.98 0 5 C13.87569991 6.14949278 27.71035076 6.12919795 41.625 6.09765625 C44.06835908 6.09578727 46.51171854 6.09436564 48.95507812 6.09336853 C55.33354762 6.08958113 61.71199374 6.07978383 68.0904541 6.06866455 C74.62019535 6.05836849 81.14994044 6.05385348 87.6796875 6.04882812 C100.45313488 6.03815756 113.22656619 6.02132429 126 6 C126.33 5.01 126.66 4.02 127 3 C127.33 4.65 127.66 6.3 128 8 C84.77 8 41.54 8 -3 8 C-2 3 -2 3 0 0 Z " fill="#3E576F" transform="translate(50,414)"/>
<path d="M0 0 C2.0140956 3.0211434 2.26836596 3.80660017 2.4140625 7.23046875 C2.45273437 8.03291016 2.49140625 8.83535156 2.53125 9.66210938 C2.5621875 10.49548828 2.593125 11.32886719 2.625 12.1875 C2.66367187 13.03248047 2.70234375 13.87746094 2.7421875 14.74804688 C2.83636279 16.83167524 2.91926675 18.91580753 3 21 C3.33 21 3.66 21 4 21 C3.93958131 23.0632984 3.85068362 25.12577414 3.75 27.1875 C3.70359375 28.33605469 3.6571875 29.48460937 3.609375 30.66796875 C2.91174 34.48260114 1.62748409 36.20961189 -1 39 C-0.9278125 38.11183594 -0.855625 37.22367188 -0.78125 36.30859375 C0.09846428 24.20030412 0.10368307 12.13570432 0 0 Z " fill="#267ACC" transform="translate(276,475)"/>
<path d="M0 0 C-0.92164422 7.72012568 -1.85543483 14.85326097 -5 22 C-6.29760307 17.76668503 -5.33707159 15.22233133 -4 11 C-3.30579802 8.33966894 -2.65582887 5.67016038 -2 3 C-4.64 5.31 -7.28 7.62 -10 10 C-10.66 9.67 -11.32 9.34 -12 9 C-10.71142987 7.68445979 -9.41904109 6.37265903 -8.125 5.0625 C-7.04605469 3.96615234 -7.04605469 3.96615234 -5.9453125 2.84765625 C-3.85726291 0.86442843 -2.89054652 0 0 0 Z " fill="#8DDAFE" transform="translate(188,43)"/>
<path d="M0 0 C0.66 0.33 1.32 0.66 2 1 C2 1.66 2 2.32 2 3 C2.66 3 3.32 3 4 3 C4.66 5.64 5.32 8.28 6 11 C-3.9 11 -13.8 11 -24 11 C-24 10.67 -24 10.34 -24 10 C-14.76 10 -5.52 10 4 10 C2.68 7.36 1.36 4.72 0 2 C0 1.34 0 0.68 0 0 Z " fill="#334D65" transform="translate(493,410)"/>
<path d="M0 0 C0.33 0 0.66 0 1 0 C1.33 5.61 1.66 11.22 2 17 C-0.49505962 14.50494038 -0.35948376 13.32671112 -0.625 9.875 C-0.69976562 8.96492187 -0.77453125 8.05484375 -0.8515625 7.1171875 C-0.90054688 6.41851562 -0.94953125 5.71984375 -1 5 C-1 6.65 -1 8.3 -1 10 C-2.65 10.33 -4.3 10.66 -6 11 C-5.67 9.35 -5.34 7.7 -5 6 C-4.34 6 -3.68 6 -3 6 C-2.87625 5.38125 -2.7525 4.7625 -2.625 4.125 C-2 2 -2 2 0 0 Z " fill="#3687D3" transform="translate(138,161)"/>
<path d="M0 0 C1.56393356 3.97376829 0.36145292 6.81377903 -0.9375 10.75 C-1.31777344 11.92046875 -1.69804687 13.0909375 -2.08984375 14.296875 C-2.39019531 15.18890625 -2.69054687 16.0809375 -3 17 C-4.29818286 12.78320746 -3.37201755 10.18826409 -2 6 C-1.62875 4.865625 -1.2575 3.73125 -0.875 2.5625 C-0.58625 1.716875 -0.2975 0.87125 0 0 Z " fill="#C3ECFE" transform="translate(186,48)"/>
<path d="M0 0 C1 2 1 2 0.328125 4.12890625 C-0.02765625 4.93199219 -0.3834375 5.73507813 -0.75 6.5625 C-1.09546875 7.36816406 -1.4409375 8.17382812 -1.796875 9.00390625 C-3 11 -3 11 -6 12 C-4.43358249 7.69235185 -2.31663844 3.93828536 0 0 Z " fill="#66798C" transform="translate(230,102)"/>
<path d="M0 0 C0.33 0.99 0.66 1.98 1 3 C-0.52994792 4.23697917 -2.05989583 5.47395833 -3.58984375 6.7109375 C-5.13266437 7.9666391 -5.13266437 7.9666391 -6 10 C-6.66 9.67 -7.32 9.34 -8 9 C-6.85459775 7.68712379 -5.70866567 6.37470979 -4.5625 5.0625 C-3.92441406 4.33160156 -3.28632813 3.60070313 -2.62890625 2.84765625 C-1.77458541 1.87860647 -0.91348825 0.91348825 0 0 Z " fill="#89D9FE" transform="translate(175,53)"/>
<path d="M0 0 C0.66 0.66 1.32 1.32 2 2 C1.75 5.5625 1.75 5.5625 1 9 C0.01 9.495 0.01 9.495 -1 10 C-1.125 2.25 -1.125 2.25 0 0 Z " fill="#5CA7E2" transform="translate(274,512)"/>
<path d="M0 0 C0.99 0.33 1.98 0.66 3 1 C2.34 1 1.68 1 1 1 C0.67 2.65 0.34 4.3 0 6 C-0.99 6.33 -1.98 6.66 -3 7 C-1.125 2.25 -1.125 2.25 0 0 Z " fill="#617487" transform="translate(111,308)"/>
</svg>
