<svg version="1.1" id="Layer_1" xmlns="http://www.w3.org/2000/svg" xmlns:xlink="http://www.w3.org/1999/xlink" x="0px" y="0px"
	 width="100%" viewBox="0 0 544 544" enable-background="new 0 0 544 544" xml:space="preserve">
<path fill="#000000" opacity="1.000000" stroke="none" 
	d="
M295.000000,545.000000 
	C196.689133,545.000000 98.878258,545.000000 1.033693,545.000000 
	C1.033693,363.730774 1.033693,182.461533 1.033693,1.096144 
	C182.227554,1.096144 363.455170,1.096144 544.841431,1.096144 
	C544.841431,182.333221 544.841431,363.666595 544.841431,545.000000 
	C461.794800,545.000000 378.647400,545.000000 295.000000,545.000000 
M93.059563,425.898682 
	C90.556602,431.955017 88.053650,438.011353 85.066711,444.831360 
	C85.828392,445.787323 86.568626,447.548065 87.355247,447.569031 
	C92.613403,447.709198 97.881462,447.478455 104.027626,447.628479 
	C109.017624,447.541382 114.007622,447.454285 119.893784,447.618317 
	C123.928268,447.532928 127.962753,447.447510 132.895996,447.613647 
	C137.262665,447.523621 141.629349,447.433624 146.896683,447.599152 
	C151.581985,447.507935 156.267303,447.416718 161.853317,447.584717 
	C165.894608,447.506256 169.935898,447.427795 174.878433,447.601593 
	C179.240143,447.513458 183.601852,447.425293 188.850250,447.577057 
	C191.885010,447.492432 194.919785,447.407837 198.848984,447.568726 
	C202.231201,447.488647 205.613419,447.408569 209.887619,447.567993 
	C213.581894,447.503845 217.276154,447.439697 221.813492,447.603882 
	C227.078323,448.419556 230.956787,447.334564 233.223770,441.641357 
	C238.140060,429.294861 243.596664,417.163513 249.322098,404.447906 
	C255.493881,390.499023 261.633911,376.535889 267.877472,362.619232 
	C268.659546,360.876038 269.988220,359.378052 271.420227,358.254517 
	C271.875671,358.642395 272.331116,359.030273 272.901337,360.110992 
	C276.108551,367.457977 279.315765,374.804932 282.770294,382.855652 
	C287.383789,392.951508 291.997253,403.047394 296.709808,413.898132 
	C300.945801,423.811646 305.068787,433.776550 309.531128,443.587097 
	C310.259399,445.188232 312.486359,446.107727 314.796021,447.599396 
	C320.182037,447.520599 325.568085,447.441772 331.867462,447.606262 
	C337.230072,447.524353 342.592712,447.442444 348.866699,447.599701 
	C353.562866,447.519226 358.259003,447.438782 363.862549,447.590668 
	C367.894226,447.514435 371.925873,447.438202 376.868164,447.592529 
	C381.230286,447.513306 385.592407,447.434082 390.866058,447.583862 
	C395.227966,447.514160 399.589874,447.444458 404.871613,447.596466 
	C410.556274,447.532867 416.240906,447.469269 422.851196,447.625092 
	C434.204163,447.625092 445.557129,447.625092 457.658203,447.625092 
	C456.661438,444.876648 456.146454,443.153534 455.427063,441.520447 
	C449.062561,427.072388 442.701263,412.622681 436.257355,398.209930 
	C432.195099,389.124084 427.993195,380.100708 423.726044,370.337646 
	C417.858093,357.214386 411.990112,344.091095 405.988770,330.249695 
	C401.099945,319.579773 396.211121,308.909821 391.389343,297.523407 
	C387.216095,288.033936 383.042816,278.544464 378.778168,268.337280 
	C373.880585,257.544678 368.983002,246.752090 363.992126,235.223602 
	C359.682617,225.476730 355.373077,215.729843 350.953186,205.262421 
	C345.318481,192.834457 339.683777,180.406479 334.039429,167.229538 
	C328.656616,155.165878 323.273773,143.102203 317.848297,130.305450 
	C312.861115,119.214134 307.873932,108.122826 302.826904,96.325066 
	C297.131409,83.580330 291.435944,70.835587 285.673340,57.389603 
	C284.922089,55.933960 284.170837,54.478313 283.432831,52.491604 
	C283.175262,52.033810 282.917725,51.576019 282.667542,50.407112 
	C281.636688,48.277077 280.605804,46.147041 279.527039,43.392338 
	C279.091034,42.689213 278.655029,41.986088 278.203064,40.723972 
	C277.672882,39.760006 277.142731,38.796040 276.515015,37.064487 
	C275.063934,33.687088 273.612854,30.309685 272.183411,26.381773 
	C271.774933,25.951567 271.366486,25.521360 270.958038,25.091150 
	C270.579224,25.701918 270.200378,26.312685 269.400543,27.258900 
	C269.167023,27.923134 268.933533,28.587368 268.172150,29.756178 
	C266.288361,34.181042 264.404572,38.605904 262.078674,43.533279 
	C261.592682,44.757397 261.106689,45.981514 260.182129,47.659607 
	C259.962677,48.449772 259.743195,49.239937 259.102509,50.624111 
	C257.988281,53.188564 256.874054,55.753017 255.255905,58.845688 
	C253.680008,62.586830 252.104095,66.327972 250.062073,70.659142 
	C247.947266,75.910927 245.832474,81.162712 243.248001,86.798889 
	C243.073135,87.553185 242.898285,88.307480 242.354950,89.612923 
	C242.156952,90.241493 241.958969,90.870064 241.293320,91.857979 
	C241.129715,92.593315 240.966125,93.328644 240.372513,94.760979 
	C239.389664,98.111259 238.406815,101.461533 237.033478,105.198669 
	C236.888016,105.903404 236.742554,106.608147 236.100739,107.854668 
	C235.008057,112.264175 233.915375,116.673683 232.442856,121.680222 
	C232.340729,122.136856 232.238602,122.593491 231.700531,123.649231 
	C229.977432,133.416168 227.951004,143.141922 226.617279,152.961746 
	C225.305496,162.620102 224.057755,172.366638 223.946991,182.087753 
	C223.819397,193.283737 224.968933,204.494263 225.625671,216.514938 
	C227.266769,226.985443 228.907867,237.455948 230.427765,248.743820 
	C234.950348,272.661285 243.283875,295.245148 254.316040,317.627289 
	C256.075928,321.398499 257.835846,325.169678 259.641602,329.624268 
	C260.533813,331.712860 261.426056,333.801422 262.256744,336.657654 
	C262.282166,337.426636 262.307587,338.195648 262.090515,339.619354 
	C262.092896,340.084320 262.095276,340.549316 261.469391,340.735657 
	C256.640594,335.501068 251.811798,330.266479 246.559021,324.522339 
	C238.361343,319.820770 230.163666,315.119202 221.345047,310.065491 
	C220.210678,309.760895 219.076309,309.456299 217.542831,308.770142 
	C217.020966,308.640808 216.499100,308.511475 215.253342,308.106415 
	C213.497833,307.827332 211.742310,307.548248 209.174789,307.045471 
	C205.777573,306.779572 202.380356,306.513672 198.107773,306.029175 
	C194.724411,306.293060 191.341064,306.556946 187.103851,306.814606 
	C182.737350,307.858917 178.370834,308.903259 173.248795,309.966980 
	C169.144424,311.899139 165.040039,313.831299 160.220047,315.869202 
	C156.153809,318.749969 152.087555,321.630737 147.488495,324.565033 
	C146.999084,325.042389 146.509674,325.519775 145.456589,326.235443 
	C145.095535,326.715851 144.734482,327.196289 143.824951,327.934326 
	C142.896515,328.997589 141.968079,330.060852 140.497818,331.286560 
	C140.060638,331.876892 139.623474,332.467224 138.583466,333.361664 
	C136.685272,335.827332 134.787079,338.292999 132.399490,341.060547 
	C132.067764,341.740570 131.736053,342.420593 130.861908,343.501068 
	C130.519043,344.309479 130.176163,345.117889 129.329529,346.369202 
	C127.464157,350.049042 125.598778,353.728882 123.219582,357.897614 
	C121.685448,361.615173 120.151306,365.332764 118.148605,369.644379 
	C117.578796,371.032776 117.008987,372.421143 116.008514,374.290771 
	C115.233322,376.336273 114.458122,378.381775 113.183205,380.885834 
	C112.292595,382.941284 111.401978,384.996704 110.156845,387.577423 
	C109.989105,388.182037 109.821365,388.786621 109.216423,389.875244 
	C108.674400,391.270844 108.132385,392.666412 107.140213,394.659363 
	C105.763382,398.107117 104.386551,401.554840 102.547096,405.358704 
	C102.251915,406.072876 101.956734,406.787048 101.144646,407.954285 
	C99.309959,412.331177 97.475273,416.708069 95.215942,421.629181 
	C94.659203,422.883545 94.102463,424.137878 93.059563,425.898682 
z"/>
<path fill="#3F7FDB" opacity="1.000000" stroke="none" 
	d="
M255.759827,58.317467 
	C256.874054,55.753017 257.988281,53.188564 259.556335,50.120300 
	C260.213654,48.812866 260.417175,48.009247 260.620697,47.205627 
	C261.106689,45.981514 261.592682,44.757397 262.572449,43.122684 
	C264.944122,38.225258 266.822052,33.738426 268.700012,29.251598 
	C268.933533,28.587368 269.167023,27.923134 270.000977,27.102190 
	C271.121552,26.941082 271.641663,26.936684 272.161774,26.932285 
	C273.612854,30.309685 275.063934,33.687088 276.185730,37.631752 
	C275.237640,40.815647 274.080139,43.431786 274.077789,46.048973 
	C273.986053,147.401657 274.010590,248.754440 273.948761,350.107178 
	C273.946869,353.211060 273.190948,356.314514 272.786560,359.418152 
	C272.331116,359.030273 271.875671,358.642395 271.189026,357.668396 
	C269.652863,353.981018 268.347870,350.879791 267.018860,347.662354 
	C266.994873,347.546173 266.756744,347.149445 266.587830,346.816345 
	C266.306122,346.261230 266.193390,346.039246 266.035706,345.576233 
	C265.773682,344.904877 265.556519,344.474579 265.279877,343.956482 
	C265.220367,343.868683 265.109406,343.687958 265.069580,343.467682 
	C264.828735,342.860321 264.627716,342.473236 264.344238,341.998901 
	C264.261780,341.911621 264.086487,341.747467 264.045410,341.457397 
	C263.447205,340.433105 262.890076,339.698883 262.332977,338.964630 
	C262.307587,338.195648 262.282166,337.426636 262.387817,335.998199 
	C261.544525,333.206116 260.570129,331.073517 259.595734,328.940887 
	C257.835846,325.169678 256.075928,321.398499 254.392029,316.994171 
	C253.967972,314.635315 253.467941,312.909546 253.112518,310.811340 
	C253.837646,307.180481 254.920700,303.922729 254.924942,300.663635 
	C255.021210,226.599136 255.022644,152.534470 254.912109,78.470009 
	C254.907852,75.614349 253.614120,72.760620 252.946243,69.520096 
	C253.900757,65.528625 254.830292,61.923046 255.759827,58.317467 
z"/>
<path fill="#386BC9" opacity="1.000000" stroke="none" 
	d="
M302.886749,97.031517 
	C307.873932,108.122826 312.861115,119.214134 317.592316,130.930725 
	C316.890564,134.279984 316.057037,137.003693 316.055145,139.727997 
	C315.988007,236.005783 316.035767,332.283691 315.913971,428.561371 
	C315.906036,434.822449 314.680023,441.082001 314.020630,447.342255 
	C312.486359,446.107727 310.259399,445.188232 309.531128,443.587097 
	C305.068787,433.776550 300.945801,423.811646 297.022644,413.360229 
	C298.223602,409.814240 299.883789,406.807190 299.887878,403.797913 
	C300.023224,304.530090 299.999664,205.262039 300.002228,105.994026 
	C300.002258,104.162216 299.681702,102.229698 300.166046,100.531029 
	C300.541840,99.213089 301.941925,98.187210 302.886749,97.031517 
z"/>
<path fill="#3663C2" opacity="1.000000" stroke="none" 
	d="
M314.408325,447.470825 
	C314.680023,441.082001 315.906036,434.822449 315.913971,428.561371 
	C316.035767,332.283691 315.988007,236.005783 316.055145,139.727997 
	C316.057037,137.003693 316.890564,134.279984 317.613647,131.297272 
	C323.273773,143.102203 328.656616,155.165878 333.791656,167.895828 
	C333.029266,171.616089 332.067993,174.669647 332.065063,177.724106 
	C331.983887,262.471680 332.018188,347.219360 331.955261,431.966980 
	C331.951447,437.099213 331.302734,442.230988 330.954102,447.362976 
	C325.568085,447.441772 320.182037,447.520599 314.408325,447.470825 
z"/>
<path fill="#335BBA" opacity="1.000000" stroke="none" 
	d="
M331.410767,447.484619 
	C331.302734,442.230988 331.951447,437.099213 331.955261,431.966980 
	C332.018188,347.219360 331.983887,262.471680 332.065063,177.724106 
	C332.067993,174.669647 333.029266,171.616089 333.796478,168.270325 
	C339.683777,180.406479 345.318481,192.834457 350.679321,205.825455 
	C349.937042,208.749420 349.061523,211.109970 349.059174,213.471359 
	C348.986908,286.464233 349.020355,359.457214 348.955078,432.450104 
	C348.950623,437.420563 348.303558,442.390411 347.955322,447.360565 
	C342.592712,447.442444 337.230072,447.524353 331.410767,447.484619 
z"/>
<path fill="#3A72D0" opacity="1.000000" stroke="none" 
	d="
M302.856812,96.678291 
	C301.941925,98.187210 300.541840,99.213089 300.166046,100.531029 
	C299.681702,102.229698 300.002258,104.162216 300.002228,105.994026 
	C299.999664,205.262039 300.023224,304.530090 299.887878,403.797913 
	C299.883789,406.807190 298.223602,409.814240 296.973145,412.982788 
	C291.997253,403.047394 287.383789,392.951508 283.042236,382.413788 
	C284.230896,380.746765 285.701843,379.625702 285.955475,378.275940 
	C286.595703,374.868713 286.957336,371.358734 286.960083,367.889557 
	C287.013794,300.486359 287.138428,233.082718 286.943939,165.680038 
	C286.840454,129.816116 286.160309,93.953857 285.740448,58.090847 
	C291.435944,70.835587 297.131409,83.580330 302.856812,96.678291 
z"/>
<path fill="#3D79D5" opacity="1.000000" stroke="none" 
	d="
M285.706909,57.740227 
	C286.160309,93.953857 286.840454,129.816116 286.943939,165.680038 
	C287.138428,233.082718 287.013794,300.486359 286.960083,367.889557 
	C286.957336,371.358734 286.595703,374.868713 285.955475,378.275940 
	C285.701843,379.625702 284.230896,380.746765 282.918579,382.061920 
	C279.315765,374.804932 276.108551,367.457977 272.843933,359.764587 
	C273.190948,356.314514 273.946869,353.211060 273.948761,350.107178 
	C274.010590,248.754440 273.986053,147.401657 274.077789,46.048973 
	C274.080139,43.431786 275.237640,40.815647 276.234497,38.015545 
	C277.142731,38.796040 277.672882,39.760006 278.228394,41.328442 
	C278.694153,42.627609 279.134552,43.322308 279.574951,44.017006 
	C280.605804,46.147041 281.636688,48.277077 282.587982,50.945621 
	C282.812164,51.996975 283.115875,52.509819 283.419586,53.022667 
	C284.170837,54.478313 284.922089,55.933960 285.706909,57.740227 
z"/>
<path fill="#4389E5" opacity="1.000000" stroke="none" 
	d="
M252.921265,69.905991 
	C253.614120,72.760620 254.907852,75.614349 254.912109,78.470009 
	C255.022644,152.534470 255.021210,226.599136 254.924942,300.663635 
	C254.920700,303.922729 253.837646,307.180481 252.889664,310.524872 
	C247.751602,298.396423 242.980988,286.181976 238.471725,273.696411 
	C239.152237,271.856110 239.935913,270.287323 239.937805,268.717621 
	C240.001862,215.891159 240.016937,163.064545 239.883774,110.238342 
	C239.879211,108.427437 238.279938,106.620567 237.423965,104.811813 
	C238.406815,101.461533 239.389664,98.111259 240.797729,94.216248 
	C241.402298,92.947220 241.581650,92.222931 241.760986,91.498627 
	C241.958969,90.870064 242.156952,90.241493 242.760468,89.138290 
	C243.349899,87.913933 243.533798,87.164215 243.717682,86.414497 
	C245.832474,81.162712 247.947266,75.910927 250.595978,70.367615 
	C251.727020,70.019394 252.324142,69.962692 252.921265,69.905991 
z"/>
<path fill="#3153B3" opacity="1.000000" stroke="none" 
	d="
M348.411011,447.480133 
	C348.303558,442.390411 348.950623,437.420563 348.955078,432.450104 
	C349.020355,359.457214 348.986908,286.464233 349.059174,213.471359 
	C349.061523,211.109970 349.937042,208.749420 350.734528,206.185730 
	C355.373077,215.729843 359.682617,225.476730 363.832031,235.953629 
	C363.447968,239.149551 363.030090,241.615295 363.028259,244.081345 
	C362.977997,311.840332 362.970123,379.599304 362.955170,447.358307 
	C358.259003,447.438782 353.562866,447.519226 348.411011,447.480133 
z"/>
<path fill="#2C3799" opacity="1.000000" stroke="none" 
	d="
M221.965988,310.417664 
	C230.163666,315.119202 238.361343,319.820770 246.769531,325.243591 
	C246.985992,349.241974 246.925049,372.519531 247.079071,395.795654 
	C247.099274,398.848907 248.220856,401.894867 248.832336,404.944183 
	C243.596664,417.163513 238.140060,429.294861 233.223770,441.641357 
	C230.956787,447.334564 227.078323,448.419556 221.418060,447.107300 
	C221.348221,443.810211 221.954163,441.010040 221.957413,438.209106 
	C222.006714,395.612030 221.977142,353.014801 221.965988,310.417664 
z"/>
<path fill="#304CAC" opacity="1.000000" stroke="none" 
	d="
M363.408875,447.474487 
	C362.970123,379.599304 362.977997,311.840332 363.028259,244.081345 
	C363.030090,241.615295 363.447968,239.149551 363.878693,236.321564 
	C368.983002,246.752090 373.880585,257.544678 378.628479,269.015533 
	C377.985962,272.940094 377.069092,276.185638 377.063599,279.432800 
	C376.974060,332.118805 377.018738,384.805054 376.955322,437.491119 
	C376.951355,440.781799 376.305054,444.071686 375.957581,447.361938 
	C371.925873,447.438202 367.894226,447.514435 363.408875,447.474487 
z"/>
<path fill="#2E45A6" opacity="1.000000" stroke="none" 
	d="
M376.412872,447.477234 
	C376.305054,444.071686 376.951355,440.781799 376.955322,437.491119 
	C377.018738,384.805054 376.974060,332.118805 377.063599,279.432800 
	C377.069092,276.185638 377.985962,272.940094 378.674194,269.374390 
	C383.042816,278.544464 387.216095,288.033936 391.285217,298.406403 
	C390.796387,307.914825 390.069092,316.541565 390.101837,325.165405 
	C390.160980,340.733124 390.746704,356.298035 390.972046,371.866150 
	C391.113373,381.631989 391.090057,391.402771 390.960144,401.168915 
	C390.894012,406.140533 390.358795,411.104095 390.169464,416.076416 
	C390.043091,419.395508 390.176117,422.723816 390.151947,426.047668 
	C390.100281,433.150177 390.021912,440.252441 389.954529,447.354828 
	C385.592407,447.434082 381.230286,447.513306 376.412872,447.477234 
z"/>
<path fill="#3257B7" opacity="1.000000" stroke="none" 
	d="
M187.963562,447.337158 
	C183.601852,447.425293 179.240143,447.513458 174.429565,447.049927 
	C173.988556,400.981354 173.996445,355.464478 174.004333,309.947601 
	C178.370834,308.903259 182.737350,307.858917 187.536911,307.298645 
	C187.967834,354.300873 187.965698,400.819031 187.963562,447.337158 
z"/>
<path fill="#386BC9" opacity="1.000000" stroke="none" 
	d="
M144.373444,327.676727 
	C144.734482,327.196289 145.095535,326.715851 145.990387,326.050537 
	C147.023239,325.414276 147.522263,324.962891 148.021301,324.511505 
	C152.087555,321.630737 156.153809,318.749969 160.600464,316.257996 
	C161.317535,321.614197 161.921417,326.580322 161.944916,331.549164 
	C162.050385,353.854767 162.120148,376.162109 161.947754,398.466858 
	C161.821854,414.754669 161.298691,431.039368 160.952606,447.325470 
	C156.267303,447.416718 151.581985,447.507935 146.446747,447.076752 
	C146.327423,443.416656 146.939148,440.279572 146.945541,437.141205 
	C147.014862,403.054901 147.042023,368.968109 146.876938,334.882446 
	C146.865280,332.476532 145.245468,330.078461 144.373444,327.676727 
z"/>
<path fill="#2D3EA0" opacity="1.000000" stroke="none" 
	d="
M390.410278,447.469360 
	C390.021912,440.252441 390.100281,433.150177 390.151947,426.047668 
	C390.176117,422.723816 390.043091,419.395508 390.169464,416.076416 
	C390.358795,411.104095 390.894012,406.140533 390.960144,401.168915 
	C391.090057,391.402771 391.113373,381.631989 390.972046,371.866150 
	C390.746704,356.298035 390.160980,340.733124 390.101837,325.165405 
	C390.069092,316.541565 390.796387,307.914825 391.251709,298.764648 
	C396.211121,308.909821 401.099945,319.579773 405.732727,330.792664 
	C405.025238,332.841492 404.164825,334.353455 404.187286,335.852173 
	C404.362488,347.553162 404.945374,359.251740 404.937805,370.950775 
	C404.928925,384.693054 404.391876,398.434235 404.197754,412.177490 
	C404.032074,423.908722 404.027588,435.642242 403.951782,447.374756 
	C399.589874,447.444458 395.227966,447.514160 390.410278,447.469360 
z"/>
<path fill="#4690EB" opacity="1.000000" stroke="none" 
	d="
M237.228729,105.005241 
	C238.279938,106.620567 239.879211,108.427437 239.883774,110.238342 
	C240.016937,163.064545 240.001862,215.891159 239.937805,268.717621 
	C239.935913,270.287323 239.152237,271.856110 238.329178,273.337585 
	C237.208603,270.729309 236.507614,268.204224 235.772125,265.689209 
	C234.039825,259.765717 232.291061,253.847061 230.548965,247.926453 
	C228.907867,237.455948 227.266769,226.985443 225.692200,215.599274 
	C225.503357,208.211044 224.679962,201.701248 225.101410,195.273087 
	C226.263885,177.542999 227.850845,159.838226 229.475296,142.142303 
	C230.062027,135.750671 231.232422,129.412628 232.136475,123.050125 
	C232.238602,122.593491 232.340729,122.136856 232.862732,121.155983 
	C234.387451,116.192123 235.492264,111.752502 236.597092,107.312881 
	C236.742554,106.608147 236.888016,105.903404 237.228729,105.005241 
z"/>
<path fill="#2C3799" opacity="1.000000" stroke="none" 
	d="
M404.411682,447.485596 
	C404.027588,435.642242 404.032074,423.908722 404.197754,412.177490 
	C404.391876,398.434235 404.928925,384.693054 404.937805,370.950775 
	C404.945374,359.251740 404.362488,347.553162 404.187286,335.852173 
	C404.164825,334.353455 405.025238,332.841492 405.799408,331.151733 
	C411.990112,344.091095 417.858093,357.214386 423.518951,370.954712 
	C422.878113,373.791748 422.078583,376.009857 422.067017,378.232025 
	C421.947021,401.289520 421.953918,424.347656 421.925568,447.405640 
	C416.240906,447.469269 410.556274,447.532867 404.411682,447.485596 
z"/>
<path fill="#2E45A6" opacity="1.000000" stroke="none" 
	d="
M221.655518,310.241577 
	C221.977142,353.014801 222.006714,395.612030 221.957413,438.209106 
	C221.954163,441.010040 221.348221,443.810211 220.996521,446.993164 
	C217.276154,447.439697 213.581894,447.503845 209.463531,447.068420 
	C209.357742,443.265594 209.948502,439.962708 209.953079,436.659058 
	C210.012680,393.529175 209.989304,350.399139 209.986801,307.269165 
	C211.742310,307.548248 213.497833,307.827332 215.702911,308.438965 
	C216.748962,308.898285 217.345459,309.024994 217.941940,309.151733 
	C219.076309,309.456299 220.210678,309.760895 221.655518,310.241577 
z"/>
<path fill="#3663C2" opacity="1.000000" stroke="none" 
	d="
M161.402954,447.455078 
	C161.298691,431.039368 161.821854,414.754669 161.947754,398.466858 
	C162.120148,376.162109 162.050385,353.854767 161.944916,331.549164 
	C161.921417,326.580322 161.317535,321.614197 160.958267,316.205139 
	C165.040039,313.831299 169.144424,311.899139 173.626556,309.957275 
	C173.996445,355.464478 173.988556,400.981354 173.978943,446.923767 
	C169.935898,447.427795 165.894608,447.506256 161.402954,447.455078 
z"/>
<path fill="#3A72D0" opacity="1.000000" stroke="none" 
	d="
M144.099197,327.805542 
	C145.245468,330.078461 146.865280,332.476532 146.876938,334.882446 
	C147.042023,368.968109 147.014862,403.054901 146.945541,437.141205 
	C146.939148,440.279572 146.327423,443.416656 145.996399,446.948975 
	C141.629349,447.433624 137.262665,447.523621 132.453125,447.097656 
	C132.335464,443.950134 132.936874,441.319275 132.943375,438.687012 
	C133.012741,410.612549 133.078354,382.537140 132.850784,354.464386 
	C132.827652,351.610382 130.885132,348.771942 129.833298,345.926300 
	C130.176163,345.117889 130.519043,344.309479 131.382599,343.148987 
	C132.231812,342.117523 132.560349,341.438110 132.888870,340.758698 
	C134.787079,338.292999 136.685272,335.827332 139.147995,333.108582 
	C140.154907,332.278412 140.597290,331.701263 141.039658,331.124146 
	C141.968079,330.060852 142.896515,328.997589 144.099197,327.805542 
z"/>
<path fill="#3153B3" opacity="1.000000" stroke="none" 
	d="
M188.406906,447.457123 
	C187.965698,400.819031 187.967834,354.300873 187.963837,307.301758 
	C191.341064,306.556946 194.724411,306.293060 198.544754,306.590149 
	C198.985825,350.913940 199.010071,394.676758 198.949310,438.439453 
	C198.945206,441.401184 198.301025,444.362000 197.954529,447.323242 
	C194.919785,447.407837 191.885010,447.492432 188.406906,447.457123 
z"/>
<path fill="#304CAC" opacity="1.000000" stroke="none" 
	d="
M198.401764,447.445984 
	C198.301025,444.362000 198.945206,441.401184 198.949310,438.439453 
	C199.010071,394.676758 198.985825,350.913940 198.982437,306.699463 
	C202.380356,306.513672 205.777573,306.779572 209.580795,307.157318 
	C209.989304,350.399139 210.012680,393.529175 209.953079,436.659058 
	C209.948502,439.962708 209.357742,443.265594 209.017548,446.948669 
	C205.613419,447.408569 202.231201,447.488647 198.401764,447.445984 
z"/>
<path fill="#2A2A8B" opacity="1.000000" stroke="none" 
	d="
M422.388367,447.515381 
	C421.953918,424.347656 421.947021,401.289520 422.067017,378.232025 
	C422.078583,376.009857 422.878113,373.791748 423.582886,371.310547 
	C427.993195,380.100708 432.195099,389.124084 436.257355,398.209930 
	C442.701263,412.622681 449.062561,427.072388 455.427063,441.520447 
	C456.146454,443.153534 456.661438,444.876648 457.658203,447.625092 
	C445.557129,447.625092 434.204163,447.625092 422.388367,447.515381 
z"/>
<path fill="#3D79D5" opacity="1.000000" stroke="none" 
	d="
M129.581421,346.147766 
	C130.885132,348.771942 132.827652,351.610382 132.850784,354.464386 
	C133.078354,382.537140 133.012741,410.612549 132.943375,438.687012 
	C132.936874,441.319275 132.335464,443.950134 132.003754,446.971863 
	C127.962753,447.447510 123.928268,447.532928 119.502396,447.116638 
	C119.375320,445.315918 119.866135,444.017548 119.870148,442.717712 
	C119.936180,421.323578 120.015511,399.928589 119.807434,378.536530 
	C119.792007,376.950104 117.612602,375.384705 116.439194,373.809540 
	C117.008987,372.421143 117.578796,371.032776 118.649994,369.181824 
	C120.678719,364.949066 122.206047,361.178894 123.733391,357.408722 
	C125.598778,353.728882 127.464157,350.049042 129.581421,346.147766 
z"/>
<path fill="#2A2A8B" opacity="1.000000" stroke="none" 
	d="
M249.077209,404.696045 
	C248.220856,401.894867 247.099274,398.848907 247.079071,395.795654 
	C246.925049,372.519531 246.985992,349.241974 246.981522,325.498352 
	C251.811798,330.266479 256.640594,335.501068 262.042755,340.943848 
	C263.106232,341.350555 263.596344,341.549011 264.086487,341.747467 
	C264.086487,341.747467 264.261780,341.911621 264.361450,342.221283 
	C264.677246,342.916626 264.893311,343.302277 265.109406,343.687958 
	C265.109406,343.687958 265.220367,343.868683 265.298584,344.203979 
	C265.611420,344.965271 265.846039,345.391266 266.080627,345.817230 
	C266.193390,346.039246 266.306122,346.261230 266.590515,346.935059 
	C266.762115,347.386902 267.042877,347.778534 267.042877,347.778534 
	C268.347870,350.879791 269.652863,353.981018 271.010742,357.424377 
	C269.988220,359.378052 268.659546,360.876038 267.877472,362.619232 
	C261.633911,376.535889 255.493881,390.499023 249.077209,404.696045 
z"/>
<path fill="#3F7FDB" opacity="1.000000" stroke="none" 
	d="
M116.223862,374.050171 
	C117.612602,375.384705 119.792007,376.950104 119.807434,378.536530 
	C120.015511,399.928589 119.936180,421.323578 119.870148,442.717712 
	C119.866135,444.017548 119.375320,445.315918 119.054321,446.991089 
	C114.007622,447.454285 109.017624,447.541382 103.756004,447.210632 
	C107.053680,436.153442 106.048981,425.200439 105.465492,414.326416 
	C105.296844,411.183594 103.863350,408.108643 103.009720,405.002594 
	C104.386551,401.554840 105.763382,398.107117 107.642799,394.187866 
	C108.648132,392.274658 109.150879,390.832947 109.653625,389.391235 
	C109.821365,388.786621 109.989105,388.182037 110.614532,387.155457 
	C111.942451,384.631439 112.812698,382.529358 113.682938,380.427277 
	C114.458122,378.381775 115.233322,376.336273 116.223862,374.050171 
z"/>
<path fill="#4389E5" opacity="1.000000" stroke="none" 
	d="
M102.778412,405.180664 
	C103.863350,408.108643 105.296844,411.183594 105.465492,414.326416 
	C106.048981,425.200439 107.053680,436.153442 103.315338,447.080444 
	C97.881462,447.478455 92.613403,447.709198 87.355247,447.569031 
	C86.568626,447.548065 85.828392,445.787323 85.584595,444.292816 
	C88.583572,437.633606 91.064659,431.512909 93.545731,425.392242 
	C94.102463,424.137878 94.659203,422.883545 95.700676,421.199524 
	C98.010788,416.347015 99.836174,411.924103 101.661545,407.501221 
	C101.956734,406.787048 102.251915,406.072876 102.778412,405.180664 
z"/>
<path fill="#3A72D0" opacity="1.000000" stroke="none" 
	d="
M231.918503,123.349678 
	C231.232422,129.412628 230.062027,135.750671 229.475296,142.142303 
	C227.850845,159.838226 226.263885,177.542999 225.101410,195.273087 
	C224.679962,201.701248 225.503357,208.211044 225.661270,215.191040 
	C224.968933,204.494263 223.819397,193.283737 223.946991,182.087753 
	C224.057755,172.366638 225.305496,162.620102 226.617279,152.961746 
	C227.951004,143.141922 229.977432,133.416168 231.918503,123.349678 
z"/>
<path fill="#3663C2" opacity="1.000000" stroke="none" 
	d="
M230.488373,248.335144 
	C232.291061,253.847061 234.039825,259.765717 235.772125,265.689209 
	C236.507614,268.204224 237.208603,270.729309 238.067825,273.608643 
	C242.980988,286.181976 247.751602,298.396423 252.745071,310.897339 
	C253.467941,312.909546 253.967972,314.635315 254.372635,316.629639 
	C243.283875,295.245148 234.950348,272.661285 230.488373,248.335144 
z"/>
<path fill="#3663C2" opacity="1.000000" stroke="none" 
	d="
M93.302650,425.645447 
	C91.064659,431.512909 88.583572,437.633606 85.826591,443.910980 
	C88.053650,438.011353 90.556602,431.955017 93.302650,425.645447 
z"/>
<path fill="#3663C2" opacity="1.000000" stroke="none" 
	d="
M101.403099,407.727753 
	C99.836174,411.924103 98.010788,416.347015 95.913002,420.927429 
	C97.475273,416.708069 99.309959,412.331177 101.403099,407.727753 
z"/>
<path fill="#3A72D0" opacity="1.000000" stroke="none" 
	d="
M268.436096,29.503887 
	C266.822052,33.738426 264.944122,38.225258 262.793488,42.871429 
	C264.404572,38.605904 266.288361,34.181042 268.436096,29.503887 
z"/>
<path fill="#3A72D0" opacity="1.000000" stroke="none" 
	d="
M236.348907,107.583771 
	C235.492264,111.752502 234.387451,116.192123 233.052658,120.857468 
	C233.915375,116.673683 235.008057,112.264175 236.348907,107.583771 
z"/>
<path fill="#3A72D0" opacity="1.000000" stroke="none" 
	d="
M252.946243,69.520096 
	C252.324142,69.962692 251.727020,70.019394 250.829041,70.072601 
	C252.104095,66.327972 253.680008,62.586830 255.507858,58.581577 
	C254.830292,61.923046 253.900757,65.528625 252.946243,69.520096 
z"/>
<path fill="#3663C2" opacity="1.000000" stroke="none" 
	d="
M123.476479,357.653168 
	C122.206047,361.178894 120.678719,364.949066 118.884277,368.884766 
	C120.151306,365.332764 121.685448,361.615173 123.476479,357.653168 
z"/>
<path fill="#3663C2" opacity="1.000000" stroke="none" 
	d="
M259.618652,329.282593 
	C260.570129,331.073517 261.544525,333.206116 262.418579,335.614380 
	C261.426056,333.801422 260.533813,331.712860 259.618652,329.282593 
z"/>
<path fill="#3663C2" opacity="1.000000" stroke="none" 
	d="
M113.433075,380.656555 
	C112.812698,382.529358 111.942451,384.631439 110.791794,386.892822 
	C111.401978,384.996704 112.292595,382.941284 113.433075,380.656555 
z"/>
<path fill="#3663C2" opacity="1.000000" stroke="none" 
	d="
M109.435028,389.633240 
	C109.150879,390.832947 108.648132,392.274658 107.867874,393.889191 
	C108.132385,392.666412 108.674400,391.270844 109.435028,389.633240 
z"/>
<path fill="#3A72D0" opacity="1.000000" stroke="none" 
	d="
M272.172607,26.657030 
	C271.641663,26.936684 271.121552,26.941082 270.211487,26.934467 
	C270.200378,26.312685 270.579224,25.701918 270.958038,25.091152 
	C271.366486,25.521360 271.774933,25.951567 272.172607,26.657030 
z"/>
<path fill="#3663C2" opacity="1.000000" stroke="none" 
	d="
M264.045410,341.457397 
	C263.596344,341.549011 263.106232,341.350555 262.356873,341.083191 
	C262.095276,340.549316 262.092896,340.084320 262.211731,339.291992 
	C262.890076,339.698883 263.447205,340.433105 264.045410,341.457397 
z"/>
<path fill="#3663C2" opacity="1.000000" stroke="none" 
	d="
M132.644180,340.909607 
	C132.560349,341.438110 132.231812,342.117523 131.653809,342.948792 
	C131.736053,342.420593 132.067764,341.740570 132.644180,340.909607 
z"/>
<path fill="#3A72D0" opacity="1.000000" stroke="none" 
	d="
M283.426208,52.757133 
	C283.115875,52.509819 282.812164,51.996975 282.584290,51.301178 
	C282.917725,51.576019 283.175262,52.033810 283.426208,52.757133 
z"/>
<path fill="#3A72D0" opacity="1.000000" stroke="none" 
	d="
M260.401428,47.432617 
	C260.417175,48.009247 260.213654,48.812866 259.766937,49.823296 
	C259.743195,49.239937 259.962677,48.449772 260.401428,47.432617 
z"/>
<path fill="#3A72D0" opacity="1.000000" stroke="none" 
	d="
M279.550995,43.704670 
	C279.134552,43.322308 278.694153,42.627609 278.236389,41.607933 
	C278.655029,41.986088 279.091034,42.689213 279.550995,43.704670 
z"/>
<path fill="#3A72D0" opacity="1.000000" stroke="none" 
	d="
M243.482849,86.606689 
	C243.533798,87.164215 243.349899,87.913933 242.944702,88.862717 
	C242.898285,88.307480 243.073135,87.553185 243.482849,86.606689 
z"/>
<path fill="#3663C2" opacity="1.000000" stroke="none" 
	d="
M140.768738,331.205353 
	C140.597290,331.701263 140.154907,332.278412 139.449417,332.956543 
	C139.623474,332.467224 140.060638,331.876892 140.768738,331.205353 
z"/>
<path fill="#3A72D0" opacity="1.000000" stroke="none" 
	d="
M241.527161,91.678307 
	C241.581650,92.222931 241.402298,92.947220 241.012726,93.867744 
	C240.966125,93.328644 241.129715,92.593315 241.527161,91.678307 
z"/>
<path fill="#3663C2" opacity="1.000000" stroke="none" 
	d="
M147.754883,324.538269 
	C147.522263,324.962891 147.023239,325.414276 146.272232,325.931396 
	C146.509674,325.519775 146.999084,325.042389 147.754883,324.538269 
z"/>
<path fill="#2C3799" opacity="1.000000" stroke="none" 
	d="
M217.742386,308.960938 
	C217.345459,309.024994 216.748962,308.898285 216.064865,308.576843 
	C216.499100,308.511475 217.020966,308.640808 217.742386,308.960938 
z"/>
<path fill="#3663C2" opacity="1.000000" stroke="none" 
	d="
M265.069580,343.467682 
	C264.893311,343.302277 264.677246,342.916626 264.443909,342.308533 
	C264.627716,342.473236 264.828735,342.860321 265.069580,343.467682 
z"/>
<path fill="#3663C2" opacity="1.000000" stroke="none" 
	d="
M266.035706,345.576233 
	C265.846039,345.391266 265.611420,344.965271 265.358093,344.291779 
	C265.556519,344.474579 265.773682,344.904877 266.035706,345.576233 
z"/>
<path fill="#3663C2" opacity="1.000000" stroke="none" 
	d="
M267.018860,347.662354 
	C267.042877,347.778534 266.762115,347.386902 266.759430,347.268188 
	C266.756744,347.149445 266.994873,347.546173 267.018860,347.662354 
z"/>
</svg>