<svg xmlns="http://www.w3.org/2000/svg" height="73.715" viewBox="0 0 67.06868 73.715072" width="67.069"><g transform="matrix(1.25 0 0 -1.25 -375.89 519.56)"><g transform="translate(.43471 .43471)"><path d="m12.078 1.0508c-1.2467-0.031816-2.7369 0.25359 5.2891 3.0352 7.4493 2.5804 11.081 6.3271 12.615 8.3594-1.5043-0.17128-3.0411 0.04334-4.2383 0.57227-1.5837 0.55499-1.802 1.379-2.666 1.0234-1.582-1.436-9.335-7.9862-19.39-8.1172-0.36414-0.00474-0.72973-0.00102-1.0996 0.011719 0 0-5.9226 0.63172 4.7637 1.8555 7.6677 0.87656 12.2 4.193 13.895 5.6836-7.5689-1.2985-10.988 6.0414-10.553 9.3105-0.01 0.4125 0.09828 0.91617 0.20703 1.4199-1.635 1.6825-6.4181 10.45-4.3281 15.762 0.61125 1.6425 2.1269 3.3951 3.9531 3.5488 2.235 0.10125 3.4694-0.38367 5.2656-1.4824 0.63875 0.26125 1.9373-0.0393 1.916 0.7832-0.83375 2.5275-4.7761 1.9019-4.9023 5.0469-0.11875-0.17625-0.32727 3.0244 1.959 5.5469 0.975 1.015 2.2809 1.7508 3.8984 1.582 1.0738-0.20625 1.9948-1.0625 2.6523-1.9688 0.51875 0.16875 0.86461 0.16719 1.3809-0.0078 0.5425-0.31 1.1068-0.79008 0.81055-2.0488-1.23-1.4788 0.8525-0.79703 1.5-1.707 0.7925-1.3988-1.1811-2.4347-1.0898-2.5547-0.86875-1.2012 0.55617-2.5166 1.0137-3.4629 1.52 1.0525 4.1677 0.58398 5.834 0.83398 0.3025 0.17 5.7638 0.30226 5.75 1.666-0.005 0.51875-0.04914 2.8296-0.08789 3.4746-0.32875 0.19375-6.1619 4.2756-1.0781 13.609-0.195 2.085-3.4492 7.2712-6.6992 10.938 0 0 5.7815-1.4375 13.115-7.6875 0.4825-0.41125 12.834 1.334 13.75-12.416 0.05125-0.7675 0.105-3.2577-0.5-5.584-0.12625-0.48375 2.5002-6.5835-3.416-10.666-0.85-1.0762-1.9525-2.1475-2.25-3-0.17-0.485 1.2785-1.605 1.166-2 0.66625-0.1675 1.4162-0.08375 2.5 0 7.75-0.75-2.5828 2.0011 3.7734 4.0273 0.4775 0.30625 1.9901 2.3409 1.8926 2.0547 1 0.83375 1.918 2.1684 3.623-0.0078 0.21125-2.3238 2.0631-3.1833 1.5469-5.1445-1.495-2.47-4.9691-4.1999-5.8203-5.2637 3.2825-1.45 5.0891-2.2173 6.9141-4.3398 3.5625-4.705-0.43734-4.5952-2.7773-4.5039 2.1412-1.98 5.5609-6.6599 4.7246-8.3887-0.13875-0.71625-0.83844-1.8078-2.9297-1.6016-5.37 0.685-10.83 3.9721-15.037 7.9121-0.11-0.5025 2.9433-6.5587 1.6445-10.639-0.333-0.4248-0.714-0.55-1.099-0.5187-0.6429 0.052087-1.3016 0.53867-1.7812 0.79102-3.1675 2.4875-5.3333 6.203-6.7695 10.061-1.7862-1.4488-4.3023-2.6929-6.8086-2.5566-0.82782-0.83908-1.9197-1.3722-3.0859-1.6562-2.415-2.904-9.483-10.521-18.143-11.528 0 0-0.38912-0.046035-0.80469-0.056641z" transform="matrix(.8 0 0 -.8 299.95 415.68)" fill="#003057"/><path d="m49.191 7.2148c-1.0088-0.1275-1.546 0.87297-2.2598 1.3555-2.465 2.4175-4.3062 5.1608-5.5312 8.6445 1.1912 1.6775 2.0431 3.8662 2.5469 6.0762 0.93375-1.2675 1.8002-2.5459 2.709-3.6797 1.345-1.2562 5.1677-11.665 2.5352-12.396zm14.85 2.8652c-0.68766-0.0031-1.4122 0.18336-2.0234 0.30273-5.182 1.135-10.32 4.897-13.957 8.742-0.39375 0.6125-3.303 4.2528-4.1992 5.3203-0.1425 0.38625-0.79688 3.773-0.70312 3.998 0.31875 0.13125 0.55641-0.03008 0.84766-0.11133 5.4625-7.3238 12.156-1.9212 13.742-0.85742 11.159-4.5638 9.3491-10.306 0.57031-6.1602 0.01125-0.41125 8.7859-6.0034 7.5234-10.398-0.46188-0.64062-1.1131-0.83281-1.8008-0.83594zm-26.148 12.453c-0.1925 0.99625-1.4898 1.6412-2.1348 2.4824-0.03625 0.54375 0.49844 0.99117 0.64844 1.6387 0.825-0.64375 1.592-1.6061 2.082-2.2148 0 0 0.52055-1.6212-0.5957-1.9062zm-2.873 3.0957c-1.0838 0.6175-1.8502 1.3654-2.9727 2.1816-0.15625 0.4525 0.32773 1.1655 0.49023 1.748 0.7175 0.2075 2.7612-1.8088 3.5-2.4238-0.11-0.50375-0.49883-1.3371-1.0176-1.5059zm17.795 0.27148c-1.295 0.99-1.7884 2.4798-1.8184 4.0586-0.02125 0.8225 0.61984 1.4282 1.1523 1.877 0.45-0.18875 1.1409-0.19281 1.7109-0.28906 0.56875-0.09625 1.4073 0.20172 1.9785 0.10547 0.24375-1.2625 0.80742-2.0465 1.8262-2.6777 0.32375-0.9575-4.1191-2.9336-4.1191-2.9336l-0.73047-0.14062zm-21.465 2.6699c-0.97625 0.77625-1.9548 1.5534-2.666 2.3809 0.14875 0.30375 0.38953 0.48875 0.48828 0.6875l2.8926-1.6641c-0.10125-0.54375-0.36734-1.0618-0.71484-1.4043zm-3.0879 2.7812c-0.355 0.4125-0.82992 0.7357-1.1074 1.0957 0.5425-0.30875 0.99586-0.15375 1.4434-0.6875-0.1075-0.1575-0.21594-0.31695-0.33594-0.4082zm-12.75 15.258c-0.46156 0.04187-0.89953 0.16508-1.082 0.33008-0.42125 0.4-0.79086 0.87836-0.78711 1.5684 0.10375 1.6038 0.63633 3.8463 2.3926 4.7363-0.0025-0.345-0.14906-0.65024-0.16406-0.92774 0.045-1.3012 0.59758-2.0228 1.5488-2.6641 0.315-0.56 0.08586-1.155-0.36914-1.6562l-0.3125-1.2324c-0.28-0.1575-0.765-0.19617-1.2266-0.1543z" transform="matrix(.8 0 0 -.8 299.95 415.68)" fill="#fff"/><path stroke-linejoin="round" d="m29.252 13.693c-0.22191-0.02496-0.46047-0.02258-0.70703 0.01367-0.98625 0.14625-1.7104 0.76461-1.6191 1.3809 0.10375 0.70125 0.82922 1.0178 1.9492 0.85156 0.98625-0.145 1.7104-0.76461 1.6191-1.3809-0.06844-0.46125-0.57645-0.79035-1.2422-0.86524z" transform="matrix(.8 0 0 -.8 299.95 415.68)" stroke="#fff" stroke-width="0.7" fill="#fff"/><path d="m35.496 15.326c-0.18283-0.0015-0.36734 0.004-0.55469 0.01953 1.415 4.895-1.2206 8.6805-3.2344 10.186-4.0038 3.7575-16.018 2.6043-11.879-7.9395-13.039 8.5575-15.219 20.867-11.199 24.43 0 0-2.5501-3.2777 0.98242-12.209 1.3487-2.7025 2.5262-5.2299 4.9687-7.1699l0.26562 0.05078c-2.2938 2.2425-3.4756 4.8063-4.8594 7.6738-0.70875 1.4362-3.338 11.603 0.33203 12.537 2.545 0.53375 5.8228-2.32 8.5703-4.0625 3.0238-2.4462 6.0076-5.0407 8.7363-7.752 1.5125-2.1188 3.9423-3.6454 5.9473-5.4629 1.5338-0.80625 2.4434-1.9409 3.6172-3.0234 0.065-0.3325 0.18242-0.58484 0.41992-0.74609 0.545 0.03625 2.6174 1.5087 0.70117 3.8574-1.5662 2.0388-3.6655 3.5499-6.1367 5.0137-2.59 1.6362-5.9103 2.3487-8.3828 4.8574-2.3375 1.7537-4.3528 3.9835-6.6641 5.6035 0.6025 0.805 8.9902-0.26805 13.803-3.2793 2.1787-1.6462 5.5042-5.3012 7.418-7 1.7925-1.7888 1.546-1.6488 3.916-2.5 2.341-5.006-1.099-13.039-6.767-13.085zm14.729 9.8633c-1.5295-0.02838-3.8141 0.7207-5.9336 4.1621-1.5125-0.0175-2.3794 1.2618-2.9844 2.248-0.36375 1.1688-0.39508 2.4038 0.51367 3.4062 0.66875 0.8175 1.8648 1.3962 3.0586 1.2812 1.3788-0.3525 2.0373-1.2602 2.666-2.3789 1.155 0.085 1.652-1.0595 2.2832-1.832 0.3-0.83875-0.80305-1.19-0.7168-2-0.23125-0.94-0.05266-2.2143 0.62109-2.8418 0.21375 0.31625-0.15617 0.79656-0.23242 1.1953 0.25625 0.8075 0.29016 1.7097 0.97266 2.4609-0.55625-1.76 0.50344-4.0371 1.4922-5.2246-0.17531-0.16312-0.82253-0.45953-1.7402-0.47656zm8.1562 3.9922c-1.0988 0.33875-1.4228 1.3085-1.7891 2.1348-0.13125 0.31875-0.18078 0.93141 0.23047 0.94141 0.68375 1.0975-0.99625 1.5973-1.5625 2.3848-0.28875 0.42625 0.08586 0.98047 0.53711 1.1367l0.75781 0.0078 0.07617-0.39648c1.08 0.82875 1.8404 1.5274 3.0254 2.1699l-0.02539 0.13086c-0.27625 0.36-0.50476 0.10961-0.91602 0.09961 0.45375 0.50125 0.98875 0.94859 1.7188 1.0898 0.3575-0.06875 0.75719 0.0087 1.1797-0.39258 0.1175-0.2525-0.10898-0.50297-0.08398-0.63672l-0.14648 0.04102c-0.145 0.04125-0.1982-0.03844-0.25195-0.11719 0.43-1.1575 1.1038-1.7843 1.2812-3.0605 0.05375 0.08125 0.18625 0.10656 0.09375 0.22656 0.02875 0.21125 0.33133 0.06336 0.42383-0.05664 0.8925-1.4125-0.15711-2.0846-1.1621-3.2559-0.8175-0.6075-1.7292-1.3673-3.3867-2.4473zm-9.8223 5.375s1.3948 3.8415-1.8652 8.1465c0 0-2.2067 3.1424-9.9492 2.3262 0 0 1.6898 3.8444 6.2285 3.6094 0 0 4.3051 0.000547 7.3301-4.1895 0 0 3.7271-5.5851-1.7441-9.8926zm-25.83 7.2324c-1.1362 0.5375-2.7158 0.50953-3.9883 0.67578-0.23375 0.85125-1.0125 1.3202-1.5 2.0527-0.7775 0.81375-2.1311 0.68977-2.5898 1.6348 0.875-0.24375 1.5755-0.65953 2.6543-0.17578 0.96375-0.71 1.9037-0.93953 2.8574-1.2383 0.9425 0.1125 1.8155-0.13109 2.5742 0.22266 0.74125-0.27 1.2541-1.1365 1.2754-1.959-0.3875-0.48875-0.6307-1.0191-1.2832-1.2129zm-1.4551 3.6113c-0.79609 0.01812-1.6759 0.29625-2.3516 0.40625-2.85 0.48375-0.21047 2.5093-0.48047 3.9043 0.03125 0.5575-0.29726 1.1832-0.75976 1.4395-0.24-0.185-0.04367-0.4918-0.13867-0.7168-0.40875 0.335-0.72375 0.89398-0.71875 1.584 0.08375 0.635 0.38016 1.2447 0.84766 1.6797 0.48 0.3675 1.0764 0.48476 1.6602 0.32226 1.0988-0.34 1.4376-1.3777 1.6426-2.4414 0 0 1.2092 0.16602 1.1055 0.69727l-0.38281 0.20312c0.145-0.04125 0.33047 0.06391 0.54297 0.03516 0.3975-0.26875 0.64844-0.49547 0.80469-0.94922-0.08375-0.635-0.10055-1.2578-0.7793-1.6641 0.4625-0.25625 0.75047-0.68297 0.57422-1.1992 0.1675-0.8625-1.1056-0.69656-1.4531-1.0391-0.33125-0.065-0.69117-0.33922-0.63867-0.60547 0.10375-0.18625 0.27883-0.01664 0.42383-0.05664 0.335 0.40875 1.0907 0.41844 1.502 0.42969 0.37-0.135 0.38156-0.54766 0.44531-0.87891-0.3375-0.92625-1.0496-1.1685-1.8457-1.1504zm2.4492 2.3008-0.25 0.22656c0.12125 0.43625 0.04703 1.1822 0.39453 1.5234 0.2375-0.16 0.54188-0.30891 0.67187-0.62891 0.1825-0.585-0.53641-0.78984-0.81641-1.1211zm30.828 0.64453c-3.2662 8.14-11.578 6.3438-11.578 6.3438-4.9433-0.6077-6.3318-3.1364-6.5371-5.4043-0.0703 0.18758-1.9364 5.2743 1.7656 8.7812 3.77 3.5725 7.9934 1.9121 9.1934 1.6309 5.87-1.37 7.4925-9.4391 7.1562-11.352zm-18.115 0.93945c0.0013-0.0035 0.01953-0.06445 0.01953-0.06445l-0.0293-0.0039c0.0018 0.02254 0.0077 0.04577 0.0098 0.06836zm-0.33008 13.555s-1.862 6.7464-6.0508 10.004c0 0 10.471-5.3503 10.939-7.4453 0 0-3.0249-0.69609-4.8887-2.5586z" transform="matrix(.8 0 0 -.8 299.95 415.68)" fill="#B3A369"/></g></g></svg>
