<?xml version="1.0" encoding="UTF-8"?>
<svg version="1.1" xmlns="http://www.w3.org/2000/svg" width="250" height="250">
<path d="M0 0 C82.5 0 165 0 250 0 C250 82.5 250 165 250 250 C167.5 250 85 250 0 250 C0 167.5 0 85 0 0 Z " fill="#0032FF" transform="translate(0,0)"/>
<path d="M0 0 C2.36801327 1.91165097 3.58128485 3.34067727 5.3125 5.9375 C5.3125 7.2575 5.3125 8.5775 5.3125 9.9375 C5.951875 9.256875 6.59125 8.57625 7.25 7.875 C9.56852188 5.58252892 11.98193691 3.446598 14.5 1.375 C15.17417969 0.81683594 15.84835938 0.25867188 16.54296875 -0.31640625 C24.22272859 -5.15822945 31.31258668 -6.71375905 40.3125 -6.5625 C41.69308594 -6.58570312 41.69308594 -6.58570312 43.1015625 -6.609375 C51.01773443 -6.56477685 58.26058377 -4.5851804 64.6875 0.1875 C71.45355509 7.27574819 72.47581105 15.05310348 72.42602539 24.59521484 C72.42617142 25.33736237 72.42631744 26.07950989 72.4264679 26.84414673 C72.42577539 29.27894083 72.41801419 31.71365689 72.41015625 34.1484375 C72.40828972 35.84380044 72.40686692 37.53916392 72.40586853 39.23452759 C72.40206189 43.68310044 72.39224751 48.13164032 72.38116455 52.5802002 C72.37091051 57.12507684 72.36636237 61.66995885 72.36132812 66.21484375 C72.3506235 75.1224126 72.33304179 84.02994839 72.3125 92.9375 C77.9225 92.9375 83.5325 92.9375 89.3125 92.9375 C89.3125 94.5875 89.3125 96.2375 89.3125 97.9375 C70.5025 97.9375 51.6925 97.9375 32.3125 97.9375 C32.3125 96.2875 32.3125 94.6375 32.3125 92.9375 C37.5925 92.9375 42.8725 92.9375 48.3125 92.9375 C48.22698488 82.20187627 48.13322756 71.46641131 48.02497292 60.73099232 C47.97503477 55.74606419 47.92870441 50.76115699 47.890625 45.77612305 C47.85374098 40.96497063 47.80737238 36.15399442 47.75443649 31.34299278 C47.73590914 29.5078306 47.72079505 27.67263067 47.70915604 25.83741188 C47.69226525 23.26618037 47.66322336 20.69535095 47.63134766 18.12426758 C47.62918747 17.36613266 47.62702728 16.60799774 47.62480164 15.82688904 C47.56093083 11.79187895 47.26964248 8.5089277 45.3125 4.9375 C42.91720331 3.61268454 42.91720331 3.61268454 40.3125 2.9375 C39.3225 2.6075 38.3325 2.2775 37.3125 1.9375 C30.73098099 1.14564071 25.81149419 2.23532628 20.3125 5.9375 C13.50185724 11.81941875 9.76025722 18.37208631 9.0340271 27.39878845 C9.02070343 28.60902176 9.00737976 29.81925507 8.99365234 31.06616211 C8.98360672 31.74018066 8.9735611 32.41419922 8.96321106 33.10864258 C8.93260751 35.31070187 8.91540846 37.51264092 8.8984375 39.71484375 C8.8797074 41.2518465 8.86013263 42.78883917 8.8397522 44.32582092 C8.78861937 48.35179679 8.74889337 52.37780592 8.71160889 56.40393066 C8.67145042 60.52002057 8.62041236 64.63597434 8.5703125 68.75195312 C8.4737766 76.81371554 8.39030781 84.87553506 8.3125 92.9375 C13.2625 92.9375 18.2125 92.9375 23.3125 92.9375 C23.3125 94.5875 23.3125 96.2375 23.3125 97.9375 C5.4925 97.9375 -12.3275 97.9375 -30.6875 97.9375 C-30.6875 96.6175 -30.6875 95.2975 -30.6875 93.9375 C-25.7375 93.9375 -20.7875 93.9375 -15.6875 93.9375 C-15.75045598 83.47985055 -15.82589828 73.02249461 -15.92321491 62.56510735 C-15.96790797 57.70911194 -16.0071665 52.85320023 -16.03393555 47.99707031 C-16.05997907 43.30904157 -16.10038902 38.62133507 -16.15068626 33.93350601 C-16.16734786 32.1466282 -16.17886655 30.35969466 -16.18511391 28.57275009 C-16.19476273 26.0662243 -16.22283075 23.56052159 -16.25512695 21.05419922 C-16.25369186 20.31836105 -16.25225677 19.58252289 -16.2507782 18.8243866 C-16.33591874 14.14032347 -17.24023187 10.92851585 -19.6875 6.9375 C-24.03036851 3.00177541 -28.31790466 2.52752662 -33.98828125 2.59375 C-39.99461354 3.35866641 -44.28255928 6.59364366 -48.5625 10.6875 C-55.37125725 21.10089345 -54.85126681 33.27208145 -55.00390625 45.28125 C-55.02451487 46.65987719 -55.04551226 48.03849861 -55.06687927 49.41711426 C-55.12169691 53.02058198 -55.17128141 56.62410285 -55.21972656 60.22766113 C-55.27023868 63.91484222 -55.3257686 67.60194749 -55.38085938 71.2890625 C-55.48794682 78.50514553 -55.58903386 85.72129324 -55.6875 92.9375 C-50.7375 92.9375 -45.7875 92.9375 -40.6875 92.9375 C-40.6875 94.5875 -40.6875 96.2375 -40.6875 97.9375 C-59.1675 97.9375 -77.6475 97.9375 -96.6875 97.9375 C-96.6875 96.2875 -96.6875 94.6375 -96.6875 92.9375 C-91.0775 92.9375 -85.4675 92.9375 -79.6875 92.9375 C-79.6875 62.5775 -79.6875 32.2175 -79.6875 0.9375 C-85.2975 0.9375 -90.9075 0.9375 -96.6875 0.9375 C-96.6875 -0.7125 -96.6875 -2.3625 -96.6875 -4.0625 C-83.1575 -4.0625 -69.6275 -4.0625 -55.6875 -4.0625 C-55.1925 1.3825 -55.1925 1.3825 -54.6875 6.9375 C-53.3675 5.7 -52.0475 4.4625 -50.6875 3.1875 C-36.67060976 -9.2086873 -15.6119087 -11.34125976 0 0 Z " fill="#F8F9FF" transform="translate(128.6875,79.0625)"/>
</svg>
